STARTFONT 2.1
FONT -FontForge-Anton-Book-R-Normal--8-80-75-75-P-34-ISO10646-1
SIZE 8 75 75
FONTBOUNDINGBOX 14 15 -2 -3
COMMENT "Generated by fontforge, http://fontforge.sourceforge.net"
COMMENT "Copyright 2011 The Anton Project Authors"
STARTPROPERTIES 40
FOUNDRY "FontForge"
FAMILY_NAME "Anton"
WEIGHT_NAME "Book"
SLANT "R"
SETWIDTH_NAME "Normal"
ADD_STYLE_NAME ""
PIXEL_SIZE 8
POINT_SIZE 80
RESOLUTION_X 75
RESOLUTION_Y 75
SPACING "P"
AVERAGE_WIDTH 34
CHARSET_REGISTRY "ISO10646"
CHARSET_ENCODING "1"
FONTNAME_REGISTRY ""
CHARSET_COLLECTIONS "ISO8859-2 ISO8859-9 ISO8859-4 ISO10646-1"
FONT_NAME "Anton-Regular"
FACE_NAME "Anton Regular"
COPYRIGHT "Copyright 2011 The Anton Project Authors"
FONT_VERSION "2.000"
FONT_ASCENT 6
FONT_DESCENT 2
UNDERLINE_POSITION -1
UNDERLINE_THICKNESS 1
X_HEIGHT 5
CAP_HEIGHT 6
DEFAULT_CHAR 1
RAW_ASCENT 800
RAW_DESCENT 200
NORM_SPACE 2
RELATIVE_WEIGHT 40
RELATIVE_SETWIDTH 50
SUPERSCRIPT_X 0
SUPERSCRIPT_Y 2
SUPERSCRIPT_SIZE 4
SUBSCRIPT_X 0
SUBSCRIPT_Y 0
SUBSCRIPT_SIZE 4
AVG_LOWERCASE_WIDTH 38
AVG_UPPERCASE_WIDTH 38
ENDPROPERTIES
CHARS 658
STARTCHAR NULL.dup1
ENCODING 0
SWIDTH 0 0
DWIDTH 0 0
BBX 1 1 0 0
BITMAP
00
ENDCHAR
STARTCHAR uni0002
ENCODING 2
SWIDTH 293 0
DWIDTH 2 0
BBX 1 1 0 0
BITMAP
00
ENDCHAR
STARTCHAR uni0009
ENCODING 9
SWIDTH 293 0
DWIDTH 2 0
BBX 1 1 0 0
BITMAP
00
ENDCHAR
STARTCHAR uni000A
ENCODING 10
SWIDTH 293 0
DWIDTH 2 0
BBX 1 1 0 0
BITMAP
00
ENDCHAR
STARTCHAR nonmarkingreturn
ENCODING 13
SWIDTH 234 0
DWIDTH 2 0
BBX 1 1 0 0
BITMAP
00
ENDCHAR
STARTCHAR space
ENCODING 32
SWIDTH 234 0
DWIDTH 2 0
BBX 1 1 0 0
BITMAP
00
ENDCHAR
STARTCHAR exclam
ENCODING 33
SWIDTH 229 0
DWIDTH 2 0
BBX 2 7 0 0
BITMAP
C0
C0
80
80
80
00
C0
ENDCHAR
STARTCHAR quotedbl
ENCODING 34
SWIDTH 429 0
DWIDTH 3 0
BBX 3 3 0 4
BITMAP
E0
A0
A0
ENDCHAR
STARTCHAR numbersign
ENCODING 35
SWIDTH 546 0
DWIDTH 4 0
BBX 4 7 0 0
BITMAP
50
50
50
F0
F0
E0
A0
ENDCHAR
STARTCHAR dollar
ENCODING 36
SWIDTH 462 0
DWIDTH 4 0
BBX 4 7 0 0
BITMAP
60
B0
C0
60
F0
E0
40
ENDCHAR
STARTCHAR percent
ENCODING 37
SWIDTH 1057 0
DWIDTH 8 0
BBX 8 7 0 0
BITMAP
64
AC
AB
AD
FD
15
13
ENDCHAR
STARTCHAR ampersand
ENCODING 38
SWIDTH 505 0
DWIDTH 4 0
BBX 4 6 0 0
BITMAP
60
60
60
F0
A0
F0
ENDCHAR
STARTCHAR quotesingle
ENCODING 39
SWIDTH 214 0
DWIDTH 2 0
BBX 2 3 0 4
BITMAP
C0
80
80
ENDCHAR
STARTCHAR parenleft
ENCODING 40
SWIDTH 291 0
DWIDTH 2 0
BBX 2 7 0 0
BITMAP
40
C0
C0
C0
C0
C0
40
ENDCHAR
STARTCHAR parenright
ENCODING 41
SWIDTH 291 0
DWIDTH 2 0
BBX 2 7 0 0
BITMAP
C0
40
40
40
40
40
80
ENDCHAR
STARTCHAR asterisk
ENCODING 42
SWIDTH 452 0
DWIDTH 4 0
BBX 3 3 0 3
BITMAP
E0
40
E0
ENDCHAR
STARTCHAR plus
ENCODING 43
SWIDTH 355 0
DWIDTH 3 0
BBX 3 3 0 1
BITMAP
40
E0
40
ENDCHAR
STARTCHAR comma
ENCODING 44
SWIDTH 236 0
DWIDTH 2 0
BBX 2 2 0 -1
BITMAP
C0
C0
ENDCHAR
STARTCHAR hyphen
ENCODING 45
SWIDTH 311 0
DWIDTH 2 0
BBX 2 1 0 2
BITMAP
C0
ENDCHAR
STARTCHAR period
ENCODING 46
SWIDTH 229 0
DWIDTH 2 0
BBX 2 1 0 0
BITMAP
C0
ENDCHAR
STARTCHAR slash
ENCODING 47
SWIDTH 405 0
DWIDTH 3 0
BBX 3 7 0 0
BITMAP
20
60
60
40
40
C0
C0
ENDCHAR
STARTCHAR zero
ENCODING 48
SWIDTH 494 0
DWIDTH 4 0
BBX 4 7 0 0
BITMAP
60
F0
F0
F0
F0
F0
60
ENDCHAR
STARTCHAR one
ENCODING 49
SWIDTH 331 0
DWIDTH 3 0
BBX 2 7 0 0
BITMAP
40
C0
40
40
40
40
40
ENDCHAR
STARTCHAR two
ENCODING 50
SWIDTH 494 0
DWIDTH 4 0
BBX 4 7 0 0
BITMAP
60
F0
F0
30
60
C0
F0
ENDCHAR
STARTCHAR three
ENCODING 51
SWIDTH 494 0
DWIDTH 4 0
BBX 4 7 0 0
BITMAP
60
F0
30
20
30
F0
60
ENDCHAR
STARTCHAR four
ENCODING 52
SWIDTH 494 0
DWIDTH 4 0
BBX 4 7 0 0
BITMAP
70
70
70
F0
B0
F0
30
ENDCHAR
STARTCHAR five
ENCODING 53
SWIDTH 494 0
DWIDTH 4 0
BBX 4 7 0 0
BITMAP
F0
C0
E0
F0
F0
F0
60
ENDCHAR
STARTCHAR six
ENCODING 54
SWIDTH 494 0
DWIDTH 4 0
BBX 4 7 0 0
BITMAP
60
F0
C0
F0
F0
F0
60
ENDCHAR
STARTCHAR seven
ENCODING 55
SWIDTH 494 0
DWIDTH 4 0
BBX 4 7 0 0
BITMAP
F0
30
20
60
60
40
40
ENDCHAR
STARTCHAR eight
ENCODING 56
SWIDTH 494 0
DWIDTH 4 0
BBX 4 7 0 0
BITMAP
E0
F0
60
F0
F0
F0
60
ENDCHAR
STARTCHAR nine
ENCODING 57
SWIDTH 504 0
DWIDTH 4 0
BBX 4 7 0 0
BITMAP
60
F0
F0
F0
30
F0
60
ENDCHAR
STARTCHAR colon
ENCODING 58
SWIDTH 242 0
DWIDTH 2 0
BBX 2 4 0 1
BITMAP
C0
00
00
C0
ENDCHAR
STARTCHAR semicolon
ENCODING 59
SWIDTH 245 0
DWIDTH 2 0
BBX 2 5 0 0
BITMAP
C0
00
00
C0
C0
ENDCHAR
STARTCHAR less
ENCODING 60
SWIDTH 321 0
DWIDTH 3 0
BBX 2 4 0 1
BITMAP
40
C0
C0
40
ENDCHAR
STARTCHAR equal
ENCODING 61
SWIDTH 311 0
DWIDTH 2 0
BBX 2 2 0 2
BITMAP
C0
C0
ENDCHAR
STARTCHAR greater
ENCODING 62
SWIDTH 321 0
DWIDTH 3 0
BBX 2 4 0 1
BITMAP
80
40
40
80
ENDCHAR
STARTCHAR question
ENCODING 63
SWIDTH 492 0
DWIDTH 4 0
BBX 4 7 0 0
BITMAP
60
F0
F0
30
E0
00
C0
ENDCHAR
STARTCHAR at
ENCODING 64
SWIDTH 864 0
DWIDTH 7 0
BBX 7 8 0 -1
BITMAP
38
44
FA
AA
AA
FC
40
38
ENDCHAR
STARTCHAR A
ENCODING 65
SWIDTH 485 0
DWIDTH 4 0
BBX 4 7 0 0
BITMAP
60
60
60
E0
F0
F0
B0
ENDCHAR
STARTCHAR B
ENCODING 66
SWIDTH 479 0
DWIDTH 4 0
BBX 4 7 0 0
BITMAP
E0
F0
F0
E0
F0
F0
E0
ENDCHAR
STARTCHAR C
ENCODING 67
SWIDTH 474 0
DWIDTH 4 0
BBX 4 7 0 0
BITMAP
60
F0
F0
C0
F0
F0
60
ENDCHAR
STARTCHAR D
ENCODING 68
SWIDTH 493 0
DWIDTH 4 0
BBX 4 7 0 0
BITMAP
E0
F0
F0
F0
F0
F0
E0
ENDCHAR
STARTCHAR E
ENCODING 69
SWIDTH 412 0
DWIDTH 3 0
BBX 3 7 0 0
BITMAP
E0
C0
C0
E0
C0
C0
E0
ENDCHAR
STARTCHAR F
ENCODING 70
SWIDTH 399 0
DWIDTH 3 0
BBX 3 7 0 0
BITMAP
E0
C0
C0
E0
C0
C0
C0
ENDCHAR
STARTCHAR G
ENCODING 71
SWIDTH 485 0
DWIDTH 4 0
BBX 4 7 0 0
BITMAP
60
F0
C0
F0
F0
F0
70
ENDCHAR
STARTCHAR H
ENCODING 72
SWIDTH 499 0
DWIDTH 4 0
BBX 4 7 0 0
BITMAP
F0
F0
F0
F0
F0
F0
F0
ENDCHAR
STARTCHAR I
ENCODING 73
SWIDTH 227 0
DWIDTH 2 0
BBX 2 7 0 0
BITMAP
C0
C0
C0
C0
C0
C0
C0
ENDCHAR
STARTCHAR J
ENCODING 74
SWIDTH 466 0
DWIDTH 4 0
BBX 4 7 0 0
BITMAP
30
30
30
30
F0
E0
60
ENDCHAR
STARTCHAR K
ENCODING 75
SWIDTH 472 0
DWIDTH 4 0
BBX 4 7 0 0
BITMAP
F0
E0
E0
E0
E0
E0
F0
ENDCHAR
STARTCHAR L
ENCODING 76
SWIDTH 397 0
DWIDTH 3 0
BBX 3 7 0 0
BITMAP
C0
C0
C0
C0
C0
C0
E0
ENDCHAR
STARTCHAR M
ENCODING 77
SWIDTH 746 0
DWIDTH 6 0
BBX 6 7 0 0
BITMAP
DC
FC
FC
FC
FC
FC
FC
ENDCHAR
STARTCHAR N
ENCODING 78
SWIDTH 498 0
DWIDTH 4 0
BBX 4 7 0 0
BITMAP
F0
F0
F0
F0
F0
F0
F0
ENDCHAR
STARTCHAR O
ENCODING 79
SWIDTH 486 0
DWIDTH 4 0
BBX 4 7 0 0
BITMAP
60
F0
F0
F0
F0
F0
60
ENDCHAR
STARTCHAR P
ENCODING 80
SWIDTH 472 0
DWIDTH 4 0
BBX 4 7 0 0
BITMAP
E0
F0
F0
E0
C0
C0
C0
ENDCHAR
STARTCHAR Q
ENCODING 81
SWIDTH 494 0
DWIDTH 4 0
BBX 4 8 0 -1
BITMAP
60
F0
F0
F0
F0
F0
60
10
ENDCHAR
STARTCHAR R
ENCODING 82
SWIDTH 477 0
DWIDTH 4 0
BBX 4 7 0 0
BITMAP
E0
F0
F0
E0
F0
F0
F0
ENDCHAR
STARTCHAR S
ENCODING 83
SWIDTH 461 0
DWIDTH 4 0
BBX 4 7 0 0
BITMAP
60
B0
C0
60
F0
E0
60
ENDCHAR
STARTCHAR T
ENCODING 84
SWIDTH 396 0
DWIDTH 3 0
BBX 3 7 0 0
BITMAP
E0
40
40
40
40
40
40
ENDCHAR
STARTCHAR U
ENCODING 85
SWIDTH 474 0
DWIDTH 4 0
BBX 4 7 0 0
BITMAP
F0
F0
F0
F0
F0
F0
60
ENDCHAR
STARTCHAR V
ENCODING 86
SWIDTH 469 0
DWIDTH 4 0
BBX 4 7 0 0
BITMAP
B0
E0
E0
60
60
60
60
ENDCHAR
STARTCHAR W
ENCODING 87
SWIDTH 712 0
DWIDTH 6 0
BBX 6 7 0 0
BITMAP
BC
F8
F8
F8
78
78
78
ENDCHAR
STARTCHAR X
ENCODING 88
SWIDTH 484 0
DWIDTH 4 0
BBX 4 7 0 0
BITMAP
F0
60
60
60
60
E0
F0
ENDCHAR
STARTCHAR Y
ENCODING 89
SWIDTH 446 0
DWIDTH 4 0
BBX 4 7 0 0
BITMAP
B0
E0
60
60
40
40
40
ENDCHAR
STARTCHAR Z
ENCODING 90
SWIDTH 410 0
DWIDTH 3 0
BBX 3 7 0 0
BITMAP
E0
20
60
40
40
C0
E0
ENDCHAR
STARTCHAR bracketleft
ENCODING 91
SWIDTH 318 0
DWIDTH 3 0
BBX 2 7 0 0
BITMAP
C0
C0
C0
C0
C0
C0
C0
ENDCHAR
STARTCHAR backslash
ENCODING 92
SWIDTH 405 0
DWIDTH 3 0
BBX 3 7 0 0
BITMAP
C0
C0
40
40
60
60
20
ENDCHAR
STARTCHAR bracketright
ENCODING 93
SWIDTH 318 0
DWIDTH 3 0
BBX 2 7 0 0
BITMAP
C0
40
40
40
40
40
C0
ENDCHAR
STARTCHAR asciicircum
ENCODING 94
SWIDTH 474 0
DWIDTH 4 0
BBX 4 4 0 2
BITMAP
60
60
60
F0
ENDCHAR
STARTCHAR underscore
ENCODING 95
SWIDTH 365 0
DWIDTH 3 0
BBX 3 1 0 -1
BITMAP
E0
ENDCHAR
STARTCHAR grave
ENCODING 96
SWIDTH 317 0
DWIDTH 3 0
BBX 2 2 0 6
BITMAP
80
C0
ENDCHAR
STARTCHAR a
ENCODING 97
SWIDTH 483 0
DWIDTH 4 0
BBX 4 6 0 0
BITMAP
60
F0
70
F0
F0
F0
ENDCHAR
STARTCHAR b
ENCODING 98
SWIDTH 501 0
DWIDTH 4 0
BBX 4 7 0 0
BITMAP
C0
F0
F0
F0
F0
F0
F0
ENDCHAR
STARTCHAR c
ENCODING 99
SWIDTH 491 0
DWIDTH 4 0
BBX 4 6 0 0
BITMAP
60
F0
C0
F0
F0
60
ENDCHAR
STARTCHAR d
ENCODING 100
SWIDTH 498 0
DWIDTH 4 0
BBX 4 7 0 0
BITMAP
30
F0
F0
F0
F0
F0
F0
ENDCHAR
STARTCHAR e
ENCODING 101
SWIDTH 488 0
DWIDTH 4 0
BBX 4 6 0 0
BITMAP
60
F0
F0
C0
F0
60
ENDCHAR
STARTCHAR f
ENCODING 102
SWIDTH 280 0
DWIDTH 2 0
BBX 2 7 0 0
BITMAP
C0
C0
C0
C0
C0
C0
C0
ENDCHAR
STARTCHAR g
ENCODING 103
SWIDTH 504 0
DWIDTH 4 0
BBX 4 7 0 -1
BITMAP
F0
F0
F0
F0
F0
B0
E0
ENDCHAR
STARTCHAR h
ENCODING 104
SWIDTH 505 0
DWIDTH 4 0
BBX 4 7 0 0
BITMAP
C0
F0
F0
F0
F0
F0
F0
ENDCHAR
STARTCHAR i
ENCODING 105
SWIDTH 243 0
DWIDTH 2 0
BBX 2 7 0 0
BITMAP
C0
C0
C0
C0
C0
C0
C0
ENDCHAR
STARTCHAR j
ENCODING 106
SWIDTH 263 0
DWIDTH 2 0
BBX 2 7 0 0
BITMAP
C0
C0
C0
C0
C0
C0
C0
ENDCHAR
STARTCHAR k
ENCODING 107
SWIDTH 491 0
DWIDTH 4 0
BBX 4 7 0 0
BITMAP
C0
F0
E0
E0
E0
F0
F0
ENDCHAR
STARTCHAR l
ENCODING 108
SWIDTH 248 0
DWIDTH 2 0
BBX 2 7 0 0
BITMAP
C0
C0
C0
C0
C0
C0
C0
ENDCHAR
STARTCHAR m
ENCODING 109
SWIDTH 758 0
DWIDTH 6 0
BBX 6 6 0 0
BITMAP
FC
FC
FC
FC
FC
FC
ENDCHAR
STARTCHAR n
ENCODING 110
SWIDTH 499 0
DWIDTH 4 0
BBX 4 6 0 0
BITMAP
F0
F0
F0
F0
F0
F0
ENDCHAR
STARTCHAR o
ENCODING 111
SWIDTH 497 0
DWIDTH 4 0
BBX 4 6 0 0
BITMAP
60
F0
F0
F0
F0
60
ENDCHAR
STARTCHAR p
ENCODING 112
SWIDTH 500 0
DWIDTH 4 0
BBX 4 7 0 -1
BITMAP
F0
F0
F0
F0
F0
F0
C0
ENDCHAR
STARTCHAR q
ENCODING 113
SWIDTH 500 0
DWIDTH 4 0
BBX 4 7 0 -1
BITMAP
F0
F0
F0
F0
F0
F0
30
ENDCHAR
STARTCHAR r
ENCODING 114
SWIDTH 344 0
DWIDTH 3 0
BBX 3 6 0 0
BITMAP
E0
C0
C0
C0
C0
C0
ENDCHAR
STARTCHAR s
ENCODING 115
SWIDTH 475 0
DWIDTH 4 0
BBX 4 6 0 0
BITMAP
60
F0
E0
30
F0
60
ENDCHAR
STARTCHAR t
ENCODING 116
SWIDTH 305 0
DWIDTH 2 0
BBX 2 7 0 0
BITMAP
40
C0
40
40
40
40
40
ENDCHAR
STARTCHAR u
ENCODING 117
SWIDTH 499 0
DWIDTH 4 0
BBX 4 6 0 0
BITMAP
F0
F0
F0
F0
F0
F0
ENDCHAR
STARTCHAR v
ENCODING 118
SWIDTH 461 0
DWIDTH 4 0
BBX 4 6 0 0
BITMAP
F0
E0
E0
60
60
60
ENDCHAR
STARTCHAR w
ENCODING 119
SWIDTH 696 0
DWIDTH 6 0
BBX 5 6 0 0
BITMAP
A8
F8
F8
78
78
78
ENDCHAR
STARTCHAR x
ENCODING 120
SWIDTH 459 0
DWIDTH 4 0
BBX 4 6 0 0
BITMAP
F0
60
60
60
60
B0
ENDCHAR
STARTCHAR y
ENCODING 121
SWIDTH 461 0
DWIDTH 4 0
BBX 4 7 0 -1
BITMAP
B0
E0
E0
60
60
60
C0
ENDCHAR
STARTCHAR z
ENCODING 122
SWIDTH 386 0
DWIDTH 3 0
BBX 3 6 0 0
BITMAP
E0
60
40
40
C0
E0
ENDCHAR
STARTCHAR braceleft
ENCODING 123
SWIDTH 340 0
DWIDTH 3 0
BBX 3 8 0 -1
BITMAP
60
40
40
40
C0
40
40
60
ENDCHAR
STARTCHAR bar
ENCODING 124
SWIDTH 216 0
DWIDTH 2 0
BBX 1 8 0 0
BITMAP
80
80
80
80
80
80
80
80
ENDCHAR
STARTCHAR braceright
ENCODING 125
SWIDTH 340 0
DWIDTH 3 0
BBX 3 8 0 -1
BITMAP
C0
40
40
40
60
40
40
C0
ENDCHAR
STARTCHAR asciitilde
ENCODING 126
SWIDTH 493 0
DWIDTH 4 0
BBX 4 1 0 3
BITMAP
F0
ENDCHAR
STARTCHAR uni00A0
ENCODING 160
SWIDTH 234 0
DWIDTH 2 0
BBX 1 1 0 0
BITMAP
00
ENDCHAR
STARTCHAR exclamdown
ENCODING 161
SWIDTH 227 0
DWIDTH 2 0
BBX 2 7 0 0
BITMAP
C0
00
80
80
80
C0
C0
ENDCHAR
STARTCHAR cent
ENCODING 162
SWIDTH 481 0
DWIDTH 4 0
BBX 4 7 0 -1
BITMAP
40
E0
F0
C0
F0
F0
60
ENDCHAR
STARTCHAR sterling
ENCODING 163
SWIDTH 474 0
DWIDTH 4 0
BBX 4 6 0 0
BITMAP
60
F0
E0
40
40
F0
ENDCHAR
STARTCHAR currency
ENCODING 164
SWIDTH 488 0
DWIDTH 4 0
BBX 4 3 0 2
BITMAP
F0
90
F0
ENDCHAR
STARTCHAR yen
ENCODING 165
SWIDTH 463 0
DWIDTH 4 0
BBX 4 7 0 0
BITMAP
B0
E0
60
60
E0
E0
40
ENDCHAR
STARTCHAR brokenbar
ENCODING 166
SWIDTH 222 0
DWIDTH 2 0
BBX 2 8 0 0
BITMAP
C0
C0
C0
C0
00
C0
C0
C0
ENDCHAR
STARTCHAR section
ENCODING 167
SWIDTH 449 0
DWIDTH 4 0
BBX 3 6 0 0
BITMAP
60
E0
E0
E0
A0
E0
ENDCHAR
STARTCHAR dieresis
ENCODING 168
SWIDTH 477 0
DWIDTH 4 0
BBX 4 1 0 7
BITMAP
F0
ENDCHAR
STARTCHAR copyright
ENCODING 169
SWIDTH 675 0
DWIDTH 5 0
BBX 5 6 0 1
BITMAP
70
A8
B8
A8
B8
70
ENDCHAR
STARTCHAR ordfeminine
ENCODING 170
SWIDTH 392 0
DWIDTH 3 0
BBX 3 5 0 3
BITMAP
E0
A0
60
A0
E0
ENDCHAR
STARTCHAR guillemotleft
ENCODING 171
SWIDTH 578 0
DWIDTH 5 0
BBX 4 4 0 1
BITMAP
50
F0
F0
50
ENDCHAR
STARTCHAR logicalnot
ENCODING 172
SWIDTH 404 0
DWIDTH 3 0
BBX 3 3 0 1
BITMAP
E0
20
20
ENDCHAR
STARTCHAR uni00AD
ENCODING 173
SWIDTH 293 0
DWIDTH 2 0
BBX 2 1 0 2
BITMAP
C0
ENDCHAR
STARTCHAR registered
ENCODING 174
SWIDTH 675 0
DWIDTH 5 0
BBX 5 6 0 1
BITMAP
70
B8
B8
A8
B8
70
ENDCHAR
STARTCHAR macron
ENCODING 175
SWIDTH 833 0
DWIDTH 7 0
BBX 3 1 2 6
BITMAP
E0
ENDCHAR
STARTCHAR degree
ENCODING 176
SWIDTH 389 0
DWIDTH 3 0
BBX 3 3 0 4
BITMAP
60
A0
E0
ENDCHAR
STARTCHAR plusminus
ENCODING 177
SWIDTH 358 0
DWIDTH 3 0
BBX 3 4 0 0
BITMAP
E0
40
40
C0
ENDCHAR
STARTCHAR uni00B2
ENCODING 178
SWIDTH 302 0
DWIDTH 2 0
BBX 2 4 0 3
BITMAP
C0
C0
40
C0
ENDCHAR
STARTCHAR uni00B3
ENCODING 179
SWIDTH 298 0
DWIDTH 2 0
BBX 2 4 0 3
BITMAP
C0
C0
C0
C0
ENDCHAR
STARTCHAR acute
ENCODING 180
SWIDTH 317 0
DWIDTH 3 0
BBX 2 2 0 6
BITMAP
40
C0
ENDCHAR
STARTCHAR uni00B5
ENCODING 181
SWIDTH 490 0
DWIDTH 4 0
BBX 4 7 0 -1
BITMAP
F0
F0
F0
F0
F0
F0
C0
ENDCHAR
STARTCHAR paragraph
ENCODING 182
SWIDTH 498 0
DWIDTH 4 0
BBX 4 6 0 0
BITMAP
F0
D0
D0
50
50
50
ENDCHAR
STARTCHAR periodcentered
ENCODING 183
SWIDTH 234 0
DWIDTH 2 0
BBX 2 1 0 3
BITMAP
C0
ENDCHAR
STARTCHAR cedilla
ENCODING 184
SWIDTH 496 0
DWIDTH 4 0
BBX 2 3 1 -3
BITMAP
80
40
C0
ENDCHAR
STARTCHAR uni00B9
ENCODING 185
SWIDTH 206 0
DWIDTH 2 0
BBX 1 4 0 3
BITMAP
80
80
80
80
ENDCHAR
STARTCHAR ordmasculine
ENCODING 186
SWIDTH 397 0
DWIDTH 3 0
BBX 3 5 0 3
BITMAP
60
A0
A0
A0
E0
ENDCHAR
STARTCHAR guillemotright
ENCODING 187
SWIDTH 578 0
DWIDTH 5 0
BBX 4 4 0 1
BITMAP
A0
F0
D0
A0
ENDCHAR
STARTCHAR onequarter
ENCODING 188
SWIDTH 814 0
DWIDTH 7 0
BBX 5 7 1 0
BITMAP
90
A0
A0
B8
58
58
40
ENDCHAR
STARTCHAR onehalf
ENCODING 189
SWIDTH 861 0
DWIDTH 7 0
BBX 5 7 1 0
BITMAP
90
A0
A0
B8
58
48
58
ENDCHAR
STARTCHAR threequarters
ENCODING 190
SWIDTH 854 0
DWIDTH 7 0
BBX 5 7 1 0
BITMAP
90
D0
E0
A8
38
58
40
ENDCHAR
STARTCHAR questiondown
ENCODING 191
SWIDTH 493 0
DWIDTH 4 0
BBX 4 7 0 0
BITMAP
30
00
20
C0
F0
F0
F0
ENDCHAR
STARTCHAR Agrave
ENCODING 192
SWIDTH 485 0
DWIDTH 4 0
BBX 4 9 0 0
BITMAP
40
60
60
60
60
E0
F0
F0
B0
ENDCHAR
STARTCHAR Aacute
ENCODING 193
SWIDTH 485 0
DWIDTH 4 0
BBX 4 9 0 0
BITMAP
20
60
60
60
60
E0
F0
F0
B0
ENDCHAR
STARTCHAR Acircumflex
ENCODING 194
SWIDTH 485 0
DWIDTH 4 0
BBX 4 9 0 0
BITMAP
E0
10
60
60
60
E0
F0
F0
B0
ENDCHAR
STARTCHAR Atilde
ENCODING 195
SWIDTH 485 0
DWIDTH 4 0
BBX 4 8 0 0
BITMAP
F0
60
60
60
E0
F0
F0
B0
ENDCHAR
STARTCHAR Adieresis
ENCODING 196
SWIDTH 485 0
DWIDTH 4 0
BBX 4 9 0 0
BITMAP
F0
00
60
60
60
E0
F0
F0
B0
ENDCHAR
STARTCHAR Aring
ENCODING 197
SWIDTH 485 0
DWIDTH 4 0
BBX 4 10 0 0
BITMAP
60
A0
60
60
60
60
E0
F0
F0
B0
ENDCHAR
STARTCHAR AE
ENCODING 198
SWIDTH 640 0
DWIDTH 5 0
BBX 5 7 0 0
BITMAP
78
70
70
F8
F0
F0
B8
ENDCHAR
STARTCHAR Ccedilla
ENCODING 199
SWIDTH 474 0
DWIDTH 4 0
BBX 4 9 0 -2
BITMAP
60
F0
F0
C0
F0
F0
60
20
60
ENDCHAR
STARTCHAR Egrave
ENCODING 200
SWIDTH 412 0
DWIDTH 3 0
BBX 3 9 0 0
BITMAP
40
60
E0
C0
C0
E0
C0
C0
E0
ENDCHAR
STARTCHAR Eacute
ENCODING 201
SWIDTH 412 0
DWIDTH 3 0
BBX 3 9 0 0
BITMAP
20
60
E0
C0
C0
E0
C0
C0
E0
ENDCHAR
STARTCHAR Ecircumflex
ENCODING 202
SWIDTH 412 0
DWIDTH 3 0
BBX 3 9 0 0
BITMAP
E0
00
E0
C0
C0
E0
C0
C0
E0
ENDCHAR
STARTCHAR Edieresis
ENCODING 203
SWIDTH 412 0
DWIDTH 3 0
BBX 3 9 0 0
BITMAP
A0
00
E0
C0
C0
E0
C0
C0
E0
ENDCHAR
STARTCHAR Igrave
ENCODING 204
SWIDTH 227 0
DWIDTH 2 0
BBX 2 9 0 0
BITMAP
80
C0
C0
C0
C0
C0
C0
C0
C0
ENDCHAR
STARTCHAR Iacute
ENCODING 205
SWIDTH 227 0
DWIDTH 2 0
BBX 2 9 0 0
BITMAP
40
C0
C0
C0
C0
C0
C0
C0
C0
ENDCHAR
STARTCHAR Icircumflex
ENCODING 206
SWIDTH 227 0
DWIDTH 2 0
BBX 4 9 -1 0
BITMAP
E0
10
60
60
60
60
60
60
60
ENDCHAR
STARTCHAR Idieresis
ENCODING 207
SWIDTH 227 0
DWIDTH 2 0
BBX 4 9 -1 0
BITMAP
F0
00
60
60
60
60
60
60
60
ENDCHAR
STARTCHAR Eth
ENCODING 208
SWIDTH 493 0
DWIDTH 4 0
BBX 4 7 0 0
BITMAP
E0
F0
F0
F0
F0
F0
E0
ENDCHAR
STARTCHAR Ntilde
ENCODING 209
SWIDTH 498 0
DWIDTH 4 0
BBX 4 8 0 0
BITMAP
70
F0
F0
F0
F0
F0
F0
F0
ENDCHAR
STARTCHAR Ograve
ENCODING 210
SWIDTH 486 0
DWIDTH 4 0
BBX 4 9 0 0
BITMAP
40
60
60
F0
F0
F0
F0
F0
60
ENDCHAR
STARTCHAR Oacute
ENCODING 211
SWIDTH 486 0
DWIDTH 4 0
BBX 4 9 0 0
BITMAP
20
60
60
F0
F0
F0
F0
F0
60
ENDCHAR
STARTCHAR Ocircumflex
ENCODING 212
SWIDTH 486 0
DWIDTH 4 0
BBX 4 9 0 0
BITMAP
E0
10
60
F0
F0
F0
F0
F0
60
ENDCHAR
STARTCHAR Otilde
ENCODING 213
SWIDTH 486 0
DWIDTH 4 0
BBX 4 8 0 0
BITMAP
F0
60
F0
F0
F0
F0
F0
60
ENDCHAR
STARTCHAR Odieresis
ENCODING 214
SWIDTH 486 0
DWIDTH 4 0
BBX 4 9 0 0
BITMAP
F0
00
60
F0
F0
F0
F0
F0
60
ENDCHAR
STARTCHAR multiply
ENCODING 215
SWIDTH 347 0
DWIDTH 3 0
BBX 3 3 0 1
BITMAP
E0
40
E0
ENDCHAR
STARTCHAR Oslash
ENCODING 216
SWIDTH 482 0
DWIDTH 4 0
BBX 4 9 0 -1
BITMAP
20
60
F0
F0
F0
F0
F0
60
80
ENDCHAR
STARTCHAR Ugrave
ENCODING 217
SWIDTH 474 0
DWIDTH 4 0
BBX 4 9 0 0
BITMAP
40
60
F0
F0
F0
F0
F0
F0
60
ENDCHAR
STARTCHAR Uacute
ENCODING 218
SWIDTH 474 0
DWIDTH 4 0
BBX 4 9 0 0
BITMAP
20
60
F0
F0
F0
F0
F0
F0
60
ENDCHAR
STARTCHAR Ucircumflex
ENCODING 219
SWIDTH 474 0
DWIDTH 4 0
BBX 4 9 0 0
BITMAP
E0
10
F0
F0
F0
F0
F0
F0
60
ENDCHAR
STARTCHAR Udieresis
ENCODING 220
SWIDTH 474 0
DWIDTH 4 0
BBX 4 9 0 0
BITMAP
F0
00
F0
F0
F0
F0
F0
F0
60
ENDCHAR
STARTCHAR Yacute
ENCODING 221
SWIDTH 446 0
DWIDTH 4 0
BBX 4 9 0 0
BITMAP
20
60
B0
E0
60
60
40
40
40
ENDCHAR
STARTCHAR Thorn
ENCODING 222
SWIDTH 462 0
DWIDTH 4 0
BBX 4 7 0 0
BITMAP
C0
E0
F0
F0
E0
C0
C0
ENDCHAR
STARTCHAR germandbls
ENCODING 223
SWIDTH 492 0
DWIDTH 4 0
BBX 4 7 0 0
BITMAP
E0
F0
E0
F0
F0
F0
E0
ENDCHAR
STARTCHAR agrave
ENCODING 224
SWIDTH 483 0
DWIDTH 4 0
BBX 4 8 0 0
BITMAP
40
60
60
F0
70
F0
F0
F0
ENDCHAR
STARTCHAR aacute
ENCODING 225
SWIDTH 483 0
DWIDTH 4 0
BBX 4 8 0 0
BITMAP
20
60
60
F0
70
F0
F0
F0
ENDCHAR
STARTCHAR acircumflex
ENCODING 226
SWIDTH 483 0
DWIDTH 4 0
BBX 4 8 0 0
BITMAP
E0
10
60
F0
70
F0
F0
F0
ENDCHAR
STARTCHAR atilde
ENCODING 227
SWIDTH 483 0
DWIDTH 4 0
BBX 4 7 0 0
BITMAP
F0
60
F0
70
F0
F0
F0
ENDCHAR
STARTCHAR adieresis
ENCODING 228
SWIDTH 483 0
DWIDTH 4 0
BBX 4 8 0 0
BITMAP
F0
00
60
F0
70
F0
F0
F0
ENDCHAR
STARTCHAR aring
ENCODING 229
SWIDTH 483 0
DWIDTH 4 0
BBX 4 9 0 0
BITMAP
60
A0
60
60
F0
70
F0
F0
F0
ENDCHAR
STARTCHAR ae
ENCODING 230
SWIDTH 731 0
DWIDTH 6 0
BBX 6 6 0 0
BITMAP
78
FC
7C
F0
FC
78
ENDCHAR
STARTCHAR ccedilla
ENCODING 231
SWIDTH 491 0
DWIDTH 4 0
BBX 4 8 0 -2
BITMAP
60
F0
C0
F0
F0
60
20
60
ENDCHAR
STARTCHAR egrave
ENCODING 232
SWIDTH 488 0
DWIDTH 4 0
BBX 4 8 0 0
BITMAP
40
60
60
F0
F0
C0
F0
60
ENDCHAR
STARTCHAR eacute
ENCODING 233
SWIDTH 488 0
DWIDTH 4 0
BBX 4 8 0 0
BITMAP
20
60
60
F0
F0
C0
F0
60
ENDCHAR
STARTCHAR ecircumflex
ENCODING 234
SWIDTH 488 0
DWIDTH 4 0
BBX 4 8 0 0
BITMAP
E0
10
60
F0
F0
C0
F0
60
ENDCHAR
STARTCHAR edieresis
ENCODING 235
SWIDTH 488 0
DWIDTH 4 0
BBX 4 8 0 0
BITMAP
F0
00
60
F0
F0
C0
F0
60
ENDCHAR
STARTCHAR igrave
ENCODING 236
SWIDTH 235 0
DWIDTH 2 0
BBX 2 8 0 0
BITMAP
80
C0
C0
C0
C0
C0
C0
C0
ENDCHAR
STARTCHAR iacute
ENCODING 237
SWIDTH 235 0
DWIDTH 2 0
BBX 2 8 0 0
BITMAP
40
C0
C0
C0
C0
C0
C0
C0
ENDCHAR
STARTCHAR icircumflex
ENCODING 238
SWIDTH 235 0
DWIDTH 2 0
BBX 4 8 -1 0
BITMAP
E0
10
60
60
60
60
60
60
ENDCHAR
STARTCHAR idieresis
ENCODING 239
SWIDTH 235 0
DWIDTH 2 0
BBX 4 8 -1 0
BITMAP
F0
00
60
60
60
60
60
60
ENDCHAR
STARTCHAR eth
ENCODING 240
SWIDTH 503 0
DWIDTH 4 0
BBX 4 7 0 0
BITMAP
D0
60
70
70
F0
F0
60
ENDCHAR
STARTCHAR ntilde
ENCODING 241
SWIDTH 499 0
DWIDTH 4 0
BBX 4 7 0 0
BITMAP
70
F0
F0
F0
F0
F0
F0
ENDCHAR
STARTCHAR ograve
ENCODING 242
SWIDTH 497 0
DWIDTH 4 0
BBX 4 8 0 0
BITMAP
40
60
60
F0
F0
F0
F0
60
ENDCHAR
STARTCHAR oacute
ENCODING 243
SWIDTH 497 0
DWIDTH 4 0
BBX 4 8 0 0
BITMAP
20
60
60
F0
F0
F0
F0
60
ENDCHAR
STARTCHAR ocircumflex
ENCODING 244
SWIDTH 497 0
DWIDTH 4 0
BBX 4 8 0 0
BITMAP
E0
10
60
F0
F0
F0
F0
60
ENDCHAR
STARTCHAR otilde
ENCODING 245
SWIDTH 497 0
DWIDTH 4 0
BBX 4 7 0 0
BITMAP
F0
60
F0
F0
F0
F0
60
ENDCHAR
STARTCHAR odieresis
ENCODING 246
SWIDTH 497 0
DWIDTH 4 0
BBX 4 8 0 0
BITMAP
F0
00
60
F0
F0
F0
F0
60
ENDCHAR
STARTCHAR divide
ENCODING 247
SWIDTH 334 0
DWIDTH 3 0
BBX 3 4 0 1
BITMAP
40
E0
00
40
ENDCHAR
STARTCHAR oslash
ENCODING 248
SWIDTH 483 0
DWIDTH 4 0
BBX 4 8 0 -1
BITMAP
10
60
F0
F0
F0
F0
60
80
ENDCHAR
STARTCHAR ugrave
ENCODING 249
SWIDTH 499 0
DWIDTH 4 0
BBX 4 8 0 0
BITMAP
40
60
F0
F0
F0
F0
F0
F0
ENDCHAR
STARTCHAR uacute
ENCODING 250
SWIDTH 499 0
DWIDTH 4 0
BBX 4 8 0 0
BITMAP
20
60
F0
F0
F0
F0
F0
F0
ENDCHAR
STARTCHAR ucircumflex
ENCODING 251
SWIDTH 499 0
DWIDTH 4 0
BBX 4 8 0 0
BITMAP
F0
00
F0
F0
F0
F0
F0
F0
ENDCHAR
STARTCHAR udieresis
ENCODING 252
SWIDTH 499 0
DWIDTH 4 0
BBX 4 8 0 0
BITMAP
F0
00
F0
F0
F0
F0
F0
F0
ENDCHAR
STARTCHAR yacute
ENCODING 253
SWIDTH 461 0
DWIDTH 4 0
BBX 4 9 0 -1
BITMAP
20
60
B0
E0
E0
60
60
60
C0
ENDCHAR
STARTCHAR thorn
ENCODING 254
SWIDTH 492 0
DWIDTH 4 0
BBX 4 8 0 -1
BITMAP
C0
E0
F0
F0
F0
F0
E0
C0
ENDCHAR
STARTCHAR ydieresis
ENCODING 255
SWIDTH 461 0
DWIDTH 4 0
BBX 4 9 0 -1
BITMAP
E0
00
B0
E0
E0
60
60
60
C0
ENDCHAR
STARTCHAR Amacron
ENCODING 256
SWIDTH 485 0
DWIDTH 4 0
BBX 4 8 0 0
BITMAP
60
60
60
60
E0
F0
F0
B0
ENDCHAR
STARTCHAR amacron
ENCODING 257
SWIDTH 483 0
DWIDTH 4 0
BBX 4 7 0 0
BITMAP
60
60
F0
70
F0
F0
F0
ENDCHAR
STARTCHAR Abreve
ENCODING 258
SWIDTH 485 0
DWIDTH 4 0
BBX 4 9 0 0
BITMAP
A0
60
60
60
60
E0
F0
F0
B0
ENDCHAR
STARTCHAR abreve
ENCODING 259
SWIDTH 483 0
DWIDTH 4 0
BBX 4 8 0 0
BITMAP
90
60
60
F0
70
F0
F0
F0
ENDCHAR
STARTCHAR Aogonek
ENCODING 260
SWIDTH 485 0
DWIDTH 4 0
BBX 4 10 0 -3
BITMAP
60
60
60
E0
F0
F0
B0
10
20
30
ENDCHAR
STARTCHAR aogonek
ENCODING 261
SWIDTH 483 0
DWIDTH 4 0
BBX 4 8 0 -2
BITMAP
60
F0
70
F0
F0
F0
20
30
ENDCHAR
STARTCHAR Cacute
ENCODING 262
SWIDTH 474 0
DWIDTH 4 0
BBX 4 9 0 0
BITMAP
20
60
60
F0
F0
C0
F0
F0
60
ENDCHAR
STARTCHAR cacute
ENCODING 263
SWIDTH 491 0
DWIDTH 4 0
BBX 4 8 0 0
BITMAP
20
60
60
F0
C0
F0
F0
60
ENDCHAR
STARTCHAR Ccircumflex
ENCODING 264
SWIDTH 474 0
DWIDTH 4 0
BBX 4 9 0 0
BITMAP
E0
10
60
F0
F0
C0
F0
F0
60
ENDCHAR
STARTCHAR ccircumflex
ENCODING 265
SWIDTH 491 0
DWIDTH 4 0
BBX 4 8 0 0
BITMAP
F0
00
60
F0
C0
F0
F0
60
ENDCHAR
STARTCHAR Cdotaccent
ENCODING 266
SWIDTH 474 0
DWIDTH 4 0
BBX 4 8 0 0
BITMAP
60
60
F0
F0
C0
F0
F0
60
ENDCHAR
STARTCHAR cdotaccent
ENCODING 267
SWIDTH 491 0
DWIDTH 4 0
BBX 4 7 0 0
BITMAP
60
60
F0
C0
F0
F0
60
ENDCHAR
STARTCHAR Ccaron
ENCODING 268
SWIDTH 474 0
DWIDTH 4 0
BBX 4 9 0 0
BITMAP
F0
00
60
F0
F0
C0
F0
F0
60
ENDCHAR
STARTCHAR ccaron
ENCODING 269
SWIDTH 491 0
DWIDTH 4 0
BBX 4 8 0 0
BITMAP
F0
00
60
F0
C0
F0
F0
60
ENDCHAR
STARTCHAR Dcaron
ENCODING 270
SWIDTH 493 0
DWIDTH 4 0
BBX 4 9 0 0
BITMAP
F0
00
E0
F0
F0
F0
F0
F0
E0
ENDCHAR
STARTCHAR dcaron
ENCODING 271
SWIDTH 498 0
DWIDTH 4 0
BBX 6 7 0 0
BITMAP
3C
F4
F8
F0
F0
F0
F0
ENDCHAR
STARTCHAR Dcroat
ENCODING 272
SWIDTH 493 0
DWIDTH 4 0
BBX 4 7 0 0
BITMAP
E0
F0
F0
F0
F0
F0
E0
ENDCHAR
STARTCHAR dcroat
ENCODING 273
SWIDTH 498 0
DWIDTH 4 0
BBX 4 7 0 0
BITMAP
30
F0
F0
F0
F0
F0
F0
ENDCHAR
STARTCHAR Emacron
ENCODING 274
SWIDTH 412 0
DWIDTH 3 0
BBX 3 8 0 0
BITMAP
E0
E0
C0
C0
E0
C0
C0
E0
ENDCHAR
STARTCHAR emacron
ENCODING 275
SWIDTH 488 0
DWIDTH 4 0
BBX 4 7 0 0
BITMAP
60
60
F0
F0
C0
F0
60
ENDCHAR
STARTCHAR Ebreve
ENCODING 276
SWIDTH 412 0
DWIDTH 3 0
BBX 3 9 0 0
BITMAP
A0
E0
E0
C0
C0
E0
C0
C0
E0
ENDCHAR
STARTCHAR ebreve
ENCODING 277
SWIDTH 488 0
DWIDTH 4 0
BBX 4 8 0 0
BITMAP
90
60
60
F0
F0
C0
F0
60
ENDCHAR
STARTCHAR Edotaccent
ENCODING 278
SWIDTH 412 0
DWIDTH 3 0
BBX 3 8 0 0
BITMAP
40
E0
C0
C0
E0
C0
C0
E0
ENDCHAR
STARTCHAR edotaccent
ENCODING 279
SWIDTH 488 0
DWIDTH 4 0
BBX 4 7 0 0
BITMAP
60
60
F0
F0
C0
F0
60
ENDCHAR
STARTCHAR Eogonek
ENCODING 280
SWIDTH 412 0
DWIDTH 3 0
BBX 3 10 0 -3
BITMAP
E0
C0
C0
E0
C0
C0
E0
40
C0
60
ENDCHAR
STARTCHAR eogonek
ENCODING 281
SWIDTH 488 0
DWIDTH 4 0
BBX 4 9 0 -3
BITMAP
60
F0
F0
C0
F0
E0
40
40
60
ENDCHAR
STARTCHAR Ecaron
ENCODING 282
SWIDTH 412 0
DWIDTH 3 0
BBX 3 9 0 0
BITMAP
E0
00
E0
C0
C0
E0
C0
C0
E0
ENDCHAR
STARTCHAR ecaron
ENCODING 283
SWIDTH 488 0
DWIDTH 4 0
BBX 4 8 0 0
BITMAP
F0
00
60
F0
F0
C0
F0
60
ENDCHAR
STARTCHAR Gcircumflex
ENCODING 284
SWIDTH 485 0
DWIDTH 4 0
BBX 4 9 0 0
BITMAP
E0
10
60
F0
C0
F0
F0
F0
70
ENDCHAR
STARTCHAR gcircumflex
ENCODING 285
SWIDTH 504 0
DWIDTH 4 0
BBX 4 9 0 -1
BITMAP
E0
10
F0
F0
F0
F0
F0
B0
E0
ENDCHAR
STARTCHAR Gbreve
ENCODING 286
SWIDTH 485 0
DWIDTH 4 0
BBX 4 9 0 0
BITMAP
A0
60
60
F0
C0
F0
F0
F0
70
ENDCHAR
STARTCHAR gbreve
ENCODING 287
SWIDTH 504 0
DWIDTH 4 0
BBX 4 9 0 -1
BITMAP
90
60
F0
F0
F0
F0
F0
B0
E0
ENDCHAR
STARTCHAR Gdotaccent
ENCODING 288
SWIDTH 485 0
DWIDTH 4 0
BBX 4 8 0 0
BITMAP
60
60
F0
C0
F0
F0
F0
70
ENDCHAR
STARTCHAR gdotaccent
ENCODING 289
SWIDTH 504 0
DWIDTH 4 0
BBX 4 8 0 -1
BITMAP
60
F0
F0
F0
F0
F0
B0
E0
ENDCHAR
STARTCHAR Gcommaaccent
ENCODING 290
SWIDTH 485 0
DWIDTH 4 0
BBX 4 9 0 -2
BITMAP
60
F0
C0
F0
F0
F0
70
60
60
ENDCHAR
STARTCHAR gcommaaccent
ENCODING 291
SWIDTH 504 0
DWIDTH 4 0
BBX 4 10 0 -1
BITMAP
60
60
00
F0
F0
F0
F0
F0
B0
E0
ENDCHAR
STARTCHAR Hcircumflex
ENCODING 292
SWIDTH 499 0
DWIDTH 4 0
BBX 4 9 0 0
BITMAP
F0
00
F0
F0
F0
F0
F0
F0
F0
ENDCHAR
STARTCHAR hcircumflex
ENCODING 293
SWIDTH 505 0
DWIDTH 4 0
BBX 5 9 -1 0
BITMAP
F0
00
60
78
78
78
78
78
78
ENDCHAR
STARTCHAR Hbar
ENCODING 294
SWIDTH 483 0
DWIDTH 4 0
BBX 4 7 0 0
BITMAP
F0
F0
F0
F0
F0
F0
F0
ENDCHAR
STARTCHAR hbar
ENCODING 295
SWIDTH 505 0
DWIDTH 4 0
BBX 4 7 0 0
BITMAP
C0
F0
F0
F0
F0
F0
F0
ENDCHAR
STARTCHAR Itilde
ENCODING 296
SWIDTH 227 0
DWIDTH 2 0
BBX 4 8 -1 0
BITMAP
F0
60
60
60
60
60
60
60
ENDCHAR
STARTCHAR itilde
ENCODING 297
SWIDTH 235 0
DWIDTH 2 0
BBX 4 7 -1 0
BITMAP
F0
60
60
60
60
60
60
ENDCHAR
STARTCHAR Imacron
ENCODING 298
SWIDTH 227 0
DWIDTH 2 0
BBX 2 8 0 0
BITMAP
C0
C0
C0
C0
C0
C0
C0
C0
ENDCHAR
STARTCHAR imacron
ENCODING 299
SWIDTH 235 0
DWIDTH 2 0
BBX 2 7 0 0
BITMAP
C0
C0
C0
C0
C0
C0
C0
ENDCHAR
STARTCHAR Ibreve
ENCODING 300
SWIDTH 227 0
DWIDTH 2 0
BBX 3 9 -1 0
BITMAP
A0
60
60
60
60
60
60
60
60
ENDCHAR
STARTCHAR ibreve
ENCODING 301
SWIDTH 235 0
DWIDTH 2 0
BBX 4 8 -1 0
BITMAP
B0
60
60
60
60
60
60
60
ENDCHAR
STARTCHAR Iogonek
ENCODING 302
SWIDTH 227 0
DWIDTH 2 0
BBX 2 10 0 -3
BITMAP
C0
C0
C0
C0
C0
C0
C0
40
80
C0
ENDCHAR
STARTCHAR iogonek
ENCODING 303
SWIDTH 244 0
DWIDTH 2 0
BBX 2 10 0 -3
BITMAP
C0
C0
C0
C0
C0
C0
C0
40
80
C0
ENDCHAR
STARTCHAR Idotaccent
ENCODING 304
SWIDTH 227 0
DWIDTH 2 0
BBX 2 8 0 0
BITMAP
C0
C0
C0
C0
C0
C0
C0
C0
ENDCHAR
STARTCHAR dotlessi
ENCODING 305
SWIDTH 235 0
DWIDTH 2 0
BBX 2 6 0 0
BITMAP
C0
C0
C0
C0
C0
C0
ENDCHAR
STARTCHAR IJ
ENCODING 306
SWIDTH 693 0
DWIDTH 6 0
BBX 5 7 0 0
BITMAP
C8
C8
C8
C8
E8
E8
F8
ENDCHAR
STARTCHAR ij
ENCODING 307
SWIDTH 506 0
DWIDTH 4 0
BBX 4 7 0 0
BITMAP
F0
F0
F0
F0
F0
F0
F0
ENDCHAR
STARTCHAR Jcircumflex
ENCODING 308
SWIDTH 466 0
DWIDTH 4 0
BBX 5 9 0 0
BITMAP
70
08
30
30
30
30
F0
E0
60
ENDCHAR
STARTCHAR jcircumflex
ENCODING 309
SWIDTH 263 0
DWIDTH 2 0
BBX 4 8 -1 0
BITMAP
70
80
60
60
60
60
60
60
ENDCHAR
STARTCHAR Kcommaaccent
ENCODING 310
SWIDTH 472 0
DWIDTH 4 0
BBX 4 9 0 -2
BITMAP
F0
E0
E0
E0
E0
E0
F0
60
20
ENDCHAR
STARTCHAR kcommaaccent
ENCODING 311
SWIDTH 497 0
DWIDTH 4 0
BBX 4 10 0 -3
BITMAP
C0
F0
E0
E0
E0
F0
F0
00
60
20
ENDCHAR
STARTCHAR kgreenlandic
ENCODING 312
SWIDTH 488 0
DWIDTH 4 0
BBX 4 6 0 0
BITMAP
F0
E0
E0
E0
E0
F0
ENDCHAR
STARTCHAR Lacute
ENCODING 313
SWIDTH 397 0
DWIDTH 3 0
BBX 3 9 0 0
BITMAP
40
C0
C0
C0
C0
C0
C0
C0
E0
ENDCHAR
STARTCHAR lacute
ENCODING 314
SWIDTH 248 0
DWIDTH 2 0
BBX 2 9 0 0
BITMAP
40
C0
C0
C0
C0
C0
C0
C0
C0
ENDCHAR
STARTCHAR Lcommaaccent
ENCODING 315
SWIDTH 397 0
DWIDTH 3 0
BBX 3 9 0 -2
BITMAP
C0
C0
C0
C0
C0
C0
E0
40
40
ENDCHAR
STARTCHAR lcommaaccent
ENCODING 316
SWIDTH 248 0
DWIDTH 2 0
BBX 2 9 0 -2
BITMAP
C0
C0
C0
C0
C0
C0
C0
C0
40
ENDCHAR
STARTCHAR Lcaron
ENCODING 317
SWIDTH 397 0
DWIDTH 3 0
BBX 3 7 0 0
BITMAP
E0
E0
C0
C0
C0
C0
E0
ENDCHAR
STARTCHAR lcaron
ENCODING 318
SWIDTH 248 0
DWIDTH 2 0
BBX 4 7 0 0
BITMAP
F0
F0
C0
C0
C0
C0
C0
ENDCHAR
STARTCHAR Ldot
ENCODING 319
SWIDTH 451 0
DWIDTH 4 0
BBX 3 7 0 0
BITMAP
C0
C0
C0
E0
C0
C0
E0
ENDCHAR
STARTCHAR ldot
ENCODING 320
SWIDTH 438 0
DWIDTH 4 0
BBX 3 7 0 0
BITMAP
C0
C0
C0
E0
C0
C0
C0
ENDCHAR
STARTCHAR Lslash
ENCODING 321
SWIDTH 417 0
DWIDTH 3 0
BBX 3 7 0 0
BITMAP
C0
C0
C0
C0
C0
C0
E0
ENDCHAR
STARTCHAR lslash
ENCODING 322
SWIDTH 288 0
DWIDTH 2 0
BBX 2 7 0 0
BITMAP
C0
C0
C0
C0
C0
C0
C0
ENDCHAR
STARTCHAR Nacute
ENCODING 323
SWIDTH 498 0
DWIDTH 4 0
BBX 4 9 0 0
BITMAP
20
60
F0
F0
F0
F0
F0
F0
F0
ENDCHAR
STARTCHAR nacute
ENCODING 324
SWIDTH 499 0
DWIDTH 4 0
BBX 4 8 0 0
BITMAP
20
60
F0
F0
F0
F0
F0
F0
ENDCHAR
STARTCHAR Ncommaaccent
ENCODING 325
SWIDTH 498 0
DWIDTH 4 0
BBX 4 9 0 -2
BITMAP
F0
F0
F0
F0
F0
F0
F0
60
60
ENDCHAR
STARTCHAR ncommaaccent
ENCODING 326
SWIDTH 499 0
DWIDTH 4 0
BBX 4 8 0 -2
BITMAP
F0
F0
F0
F0
F0
F0
60
60
ENDCHAR
STARTCHAR Ncaron
ENCODING 327
SWIDTH 498 0
DWIDTH 4 0
BBX 4 9 0 0
BITMAP
F0
00
F0
F0
F0
F0
F0
F0
F0
ENDCHAR
STARTCHAR ncaron
ENCODING 328
SWIDTH 499 0
DWIDTH 4 0
BBX 4 8 0 0
BITMAP
F0
00
F0
F0
F0
F0
F0
F0
ENDCHAR
STARTCHAR napostrophe
ENCODING 329
SWIDTH 535 0
DWIDTH 4 0
BBX 4 8 0 0
BITMAP
80
80
70
50
50
50
50
50
ENDCHAR
STARTCHAR Eng
ENCODING 330
SWIDTH 491 0
DWIDTH 4 0
BBX 4 9 0 -2
BITMAP
F0
F0
F0
F0
F0
F0
F0
30
E0
ENDCHAR
STARTCHAR eng
ENCODING 331
SWIDTH 489 0
DWIDTH 4 0
BBX 4 8 0 -2
BITMAP
F0
F0
F0
F0
F0
F0
30
E0
ENDCHAR
STARTCHAR Omacron
ENCODING 332
SWIDTH 486 0
DWIDTH 4 0
BBX 4 8 0 0
BITMAP
60
60
F0
F0
F0
F0
F0
60
ENDCHAR
STARTCHAR omacron
ENCODING 333
SWIDTH 497 0
DWIDTH 4 0
BBX 4 7 0 0
BITMAP
60
60
F0
F0
F0
F0
60
ENDCHAR
STARTCHAR Obreve
ENCODING 334
SWIDTH 486 0
DWIDTH 4 0
BBX 4 9 0 0
BITMAP
B0
60
60
F0
F0
F0
F0
F0
60
ENDCHAR
STARTCHAR obreve
ENCODING 335
SWIDTH 497 0
DWIDTH 4 0
BBX 4 8 0 0
BITMAP
90
60
60
F0
F0
F0
F0
60
ENDCHAR
STARTCHAR Ohungarumlaut
ENCODING 336
SWIDTH 486 0
DWIDTH 4 0
BBX 4 9 0 0
BITMAP
70
60
60
F0
F0
F0
F0
F0
60
ENDCHAR
STARTCHAR ohungarumlaut
ENCODING 337
SWIDTH 497 0
DWIDTH 4 0
BBX 4 8 0 0
BITMAP
70
60
60
F0
F0
F0
F0
60
ENDCHAR
STARTCHAR OE
ENCODING 338
SWIDTH 649 0
DWIDTH 5 0
BBX 5 7 0 0
BITMAP
78
F0
F0
F8
F0
F0
78
ENDCHAR
STARTCHAR oe
ENCODING 339
SWIDTH 739 0
DWIDTH 6 0
BBX 6 6 0 0
BITMAP
78
FC
FC
F0
FC
78
ENDCHAR
STARTCHAR Racute
ENCODING 340
SWIDTH 477 0
DWIDTH 4 0
BBX 4 9 0 0
BITMAP
20
60
E0
F0
F0
E0
F0
F0
F0
ENDCHAR
STARTCHAR racute
ENCODING 341
SWIDTH 344 0
DWIDTH 3 0
BBX 3 8 0 0
BITMAP
40
40
E0
C0
C0
C0
C0
C0
ENDCHAR
STARTCHAR Rcommaaccent
ENCODING 342
SWIDTH 477 0
DWIDTH 4 0
BBX 4 9 0 -2
BITMAP
E0
F0
F0
E0
F0
F0
F0
60
60
ENDCHAR
STARTCHAR rcommaaccent
ENCODING 343
SWIDTH 344 0
DWIDTH 3 0
BBX 3 8 0 -2
BITMAP
E0
C0
C0
C0
C0
C0
C0
C0
ENDCHAR
STARTCHAR Rcaron
ENCODING 344
SWIDTH 477 0
DWIDTH 4 0
BBX 4 9 0 0
BITMAP
F0
00
E0
F0
F0
E0
F0
F0
F0
ENDCHAR
STARTCHAR rcaron
ENCODING 345
SWIDTH 342 0
DWIDTH 3 0
BBX 3 8 0 0
BITMAP
E0
00
E0
C0
C0
C0
C0
C0
ENDCHAR
STARTCHAR Sacute
ENCODING 346
SWIDTH 461 0
DWIDTH 4 0
BBX 4 9 0 0
BITMAP
20
60
60
B0
C0
60
F0
E0
60
ENDCHAR
STARTCHAR sacute
ENCODING 347
SWIDTH 475 0
DWIDTH 4 0
BBX 4 8 0 0
BITMAP
20
60
60
F0
E0
30
F0
60
ENDCHAR
STARTCHAR Scircumflex
ENCODING 348
SWIDTH 461 0
DWIDTH 4 0
BBX 4 9 0 0
BITMAP
E0
10
60
B0
C0
60
F0
E0
60
ENDCHAR
STARTCHAR scircumflex
ENCODING 349
SWIDTH 475 0
DWIDTH 4 0
BBX 4 8 0 0
BITMAP
E0
10
60
F0
E0
30
F0
60
ENDCHAR
STARTCHAR Scedilla
ENCODING 350
SWIDTH 461 0
DWIDTH 4 0
BBX 4 9 0 -2
BITMAP
60
B0
C0
60
F0
E0
60
20
60
ENDCHAR
STARTCHAR scedilla
ENCODING 351
SWIDTH 475 0
DWIDTH 4 0
BBX 4 8 0 -2
BITMAP
E0
F0
60
30
F0
60
20
60
ENDCHAR
STARTCHAR Scaron
ENCODING 352
SWIDTH 461 0
DWIDTH 4 0
BBX 4 9 0 0
BITMAP
F0
00
60
B0
C0
60
F0
E0
60
ENDCHAR
STARTCHAR scaron
ENCODING 353
SWIDTH 476 0
DWIDTH 4 0
BBX 4 8 0 0
BITMAP
F0
00
60
F0
E0
30
F0
60
ENDCHAR
STARTCHAR uni0162
ENCODING 354
SWIDTH 396 0
DWIDTH 3 0
BBX 3 10 0 -3
BITMAP
E0
40
40
40
40
40
40
40
20
60
ENDCHAR
STARTCHAR uni0163
ENCODING 355
SWIDTH 305 0
DWIDTH 2 0
BBX 3 9 0 -2
BITMAP
40
C0
40
40
40
40
40
40
60
ENDCHAR
STARTCHAR Tcaron
ENCODING 356
SWIDTH 396 0
DWIDTH 3 0
BBX 3 9 0 0
BITMAP
E0
00
E0
40
40
40
40
40
40
ENDCHAR
STARTCHAR tcaron
ENCODING 357
SWIDTH 305 0
DWIDTH 2 0
BBX 4 7 0 0
BITMAP
70
D0
40
40
40
40
40
ENDCHAR
STARTCHAR Tbar
ENCODING 358
SWIDTH 396 0
DWIDTH 3 0
BBX 3 7 0 0
BITMAP
E0
40
40
E0
40
40
40
ENDCHAR
STARTCHAR tbar
ENCODING 359
SWIDTH 305 0
DWIDTH 2 0
BBX 2 7 0 0
BITMAP
40
C0
40
C0
40
40
40
ENDCHAR
STARTCHAR Utilde
ENCODING 360
SWIDTH 474 0
DWIDTH 4 0
BBX 4 8 0 0
BITMAP
70
F0
F0
F0
F0
F0
F0
60
ENDCHAR
STARTCHAR utilde
ENCODING 361
SWIDTH 499 0
DWIDTH 4 0
BBX 4 7 0 0
BITMAP
70
F0
F0
F0
F0
F0
F0
ENDCHAR
STARTCHAR Umacron
ENCODING 362
SWIDTH 474 0
DWIDTH 4 0
BBX 4 8 0 0
BITMAP
60
F0
F0
F0
F0
F0
F0
60
ENDCHAR
STARTCHAR umacron
ENCODING 363
SWIDTH 499 0
DWIDTH 4 0
BBX 4 7 0 0
BITMAP
60
F0
F0
F0
F0
F0
F0
ENDCHAR
STARTCHAR Ubreve
ENCODING 364
SWIDTH 474 0
DWIDTH 4 0
BBX 4 9 0 0
BITMAP
A0
60
F0
F0
F0
F0
F0
F0
60
ENDCHAR
STARTCHAR ubreve
ENCODING 365
SWIDTH 499 0
DWIDTH 4 0
BBX 4 8 0 0
BITMAP
D0
60
F0
F0
F0
F0
F0
F0
ENDCHAR
STARTCHAR Uring
ENCODING 366
SWIDTH 474 0
DWIDTH 4 0
BBX 4 10 0 0
BITMAP
60
A0
60
F0
F0
F0
F0
F0
F0
60
ENDCHAR
STARTCHAR uring
ENCODING 367
SWIDTH 499 0
DWIDTH 4 0
BBX 4 9 0 0
BITMAP
60
60
60
F0
F0
F0
F0
F0
F0
ENDCHAR
STARTCHAR Uhungarumlaut
ENCODING 368
SWIDTH 474 0
DWIDTH 4 0
BBX 4 9 0 0
BITMAP
70
60
F0
F0
F0
F0
F0
F0
60
ENDCHAR
STARTCHAR uhungarumlaut
ENCODING 369
SWIDTH 499 0
DWIDTH 4 0
BBX 4 8 0 0
BITMAP
70
60
F0
F0
F0
F0
F0
F0
ENDCHAR
STARTCHAR Uogonek
ENCODING 370
SWIDTH 474 0
DWIDTH 4 0
BBX 4 9 0 -2
BITMAP
F0
F0
F0
F0
F0
E0
60
40
60
ENDCHAR
STARTCHAR uogonek
ENCODING 371
SWIDTH 499 0
DWIDTH 4 0
BBX 4 8 0 -2
BITMAP
F0
F0
F0
F0
F0
F0
20
30
ENDCHAR
STARTCHAR Wcircumflex
ENCODING 372
SWIDTH 712 0
DWIDTH 6 0
BBX 6 9 0 0
BITMAP
70
08
BC
F8
F8
F8
78
78
78
ENDCHAR
STARTCHAR wcircumflex
ENCODING 373
SWIDTH 696 0
DWIDTH 6 0
BBX 5 8 0 0
BITMAP
70
08
A8
F8
F8
78
78
78
ENDCHAR
STARTCHAR Ycircumflex
ENCODING 374
SWIDTH 446 0
DWIDTH 4 0
BBX 4 9 0 0
BITMAP
E0
10
B0
E0
60
60
40
40
40
ENDCHAR
STARTCHAR ycircumflex
ENCODING 375
SWIDTH 461 0
DWIDTH 4 0
BBX 4 9 0 -1
BITMAP
E0
10
B0
E0
E0
60
60
60
C0
ENDCHAR
STARTCHAR Ydieresis
ENCODING 376
SWIDTH 446 0
DWIDTH 4 0
BBX 4 9 0 0
BITMAP
E0
00
B0
E0
60
60
40
40
40
ENDCHAR
STARTCHAR Zacute
ENCODING 377
SWIDTH 410 0
DWIDTH 3 0
BBX 3 9 0 0
BITMAP
20
60
E0
20
60
40
40
C0
E0
ENDCHAR
STARTCHAR zacute
ENCODING 378
SWIDTH 386 0
DWIDTH 3 0
BBX 3 8 0 0
BITMAP
20
60
E0
60
40
40
C0
E0
ENDCHAR
STARTCHAR Zdotaccent
ENCODING 379
SWIDTH 410 0
DWIDTH 3 0
BBX 3 8 0 0
BITMAP
40
E0
20
60
40
40
C0
E0
ENDCHAR
STARTCHAR zdotaccent
ENCODING 380
SWIDTH 386 0
DWIDTH 3 0
BBX 3 7 0 0
BITMAP
40
E0
60
40
40
C0
E0
ENDCHAR
STARTCHAR Zcaron
ENCODING 381
SWIDTH 410 0
DWIDTH 3 0
BBX 3 9 0 0
BITMAP
E0
00
E0
20
60
40
40
C0
E0
ENDCHAR
STARTCHAR zcaron
ENCODING 382
SWIDTH 386 0
DWIDTH 3 0
BBX 3 8 0 0
BITMAP
E0
00
E0
60
40
40
C0
E0
ENDCHAR
STARTCHAR uni018F
ENCODING 399
SWIDTH 488 0
DWIDTH 4 0
BBX 4 7 0 0
BITMAP
60
F0
30
F0
F0
F0
60
ENDCHAR
STARTCHAR florin
ENCODING 402
SWIDTH 303 0
DWIDTH 2 0
BBX 2 6 0 0
BITMAP
40
C0
40
40
40
C0
ENDCHAR
STARTCHAR Ohorn
ENCODING 416
SWIDTH 490 0
DWIDTH 4 0
BBX 4 8 0 0
BITMAP
10
60
F0
F0
F0
F0
F0
60
ENDCHAR
STARTCHAR ohorn
ENCODING 417
SWIDTH 497 0
DWIDTH 4 0
BBX 4 7 0 0
BITMAP
10
60
F0
F0
F0
F0
60
ENDCHAR
STARTCHAR Uhorn
ENCODING 431
SWIDTH 569 0
DWIDTH 5 0
BBX 4 8 0 0
BITMAP
10
F0
F0
F0
F0
F0
F0
60
ENDCHAR
STARTCHAR uhorn
ENCODING 432
SWIDTH 570 0
DWIDTH 5 0
BBX 5 7 0 0
BITMAP
18
F0
F0
F0
F0
F0
F0
ENDCHAR
STARTCHAR uni01C4
ENCODING 452
SWIDTH 903 0
DWIDTH 7 0
BBX 7 9 0 0
BITMAP
0E
00
EE
F2
F6
F4
F4
FC
EE
ENDCHAR
STARTCHAR uni01C5
ENCODING 453
SWIDTH 879 0
DWIDTH 7 0
BBX 7 8 0 0
BITMAP
0E
E0
FE
F6
F4
F4
FC
EE
ENDCHAR
STARTCHAR uni01C6
ENCODING 454
SWIDTH 884 0
DWIDTH 7 0
BBX 7 8 0 0
BITMAP
0E
30
FE
F6
F4
F4
FC
FE
ENDCHAR
STARTCHAR uni01C7
ENCODING 455
SWIDTH 863 0
DWIDTH 7 0
BBX 7 7 0 0
BITMAP
C6
C6
C6
C6
DE
DE
EC
ENDCHAR
STARTCHAR uni01C8
ENCODING 456
SWIDTH 660 0
DWIDTH 5 0
BBX 5 7 0 0
BITMAP
C8
C8
C8
C8
C8
C8
F8
ENDCHAR
STARTCHAR uni01C9
ENCODING 457
SWIDTH 511 0
DWIDTH 4 0
BBX 4 7 0 0
BITMAP
F0
F0
F0
F0
F0
F0
F0
ENDCHAR
STARTCHAR uni01CA
ENCODING 458
SWIDTH 964 0
DWIDTH 8 0
BBX 7 7 0 0
BITMAP
F2
F2
F2
F2
FA
FE
F6
ENDCHAR
STARTCHAR uni01CB
ENCODING 459
SWIDTH 761 0
DWIDTH 6 0
BBX 6 7 0 0
BITMAP
FC
FC
FC
FC
FC
FC
FC
ENDCHAR
STARTCHAR uni01CC
ENCODING 460
SWIDTH 762 0
DWIDTH 6 0
BBX 6 7 0 0
BITMAP
0C
FC
FC
FC
FC
FC
FC
ENDCHAR
STARTCHAR uni01CD
ENCODING 461
SWIDTH 485 0
DWIDTH 4 0
BBX 4 9 0 0
BITMAP
F0
00
60
60
60
E0
F0
F0
B0
ENDCHAR
STARTCHAR uni01CE
ENCODING 462
SWIDTH 483 0
DWIDTH 4 0
BBX 4 8 0 0
BITMAP
F0
00
60
F0
70
F0
F0
F0
ENDCHAR
STARTCHAR uni01CF
ENCODING 463
SWIDTH 227 0
DWIDTH 2 0
BBX 4 9 -1 0
BITMAP
F0
00
60
60
60
60
60
60
60
ENDCHAR
STARTCHAR uni01D0
ENCODING 464
SWIDTH 235 0
DWIDTH 2 0
BBX 4 8 -1 0
BITMAP
F0
00
60
60
60
60
60
60
ENDCHAR
STARTCHAR uni01D1
ENCODING 465
SWIDTH 486 0
DWIDTH 4 0
BBX 4 9 0 0
BITMAP
F0
00
60
F0
F0
F0
F0
F0
60
ENDCHAR
STARTCHAR uni01D2
ENCODING 466
SWIDTH 497 0
DWIDTH 4 0
BBX 4 8 0 0
BITMAP
F0
00
60
F0
F0
F0
F0
60
ENDCHAR
STARTCHAR uni01D3
ENCODING 467
SWIDTH 474 0
DWIDTH 4 0
BBX 4 9 0 0
BITMAP
F0
00
F0
F0
F0
F0
F0
F0
60
ENDCHAR
STARTCHAR uni01D4
ENCODING 468
SWIDTH 499 0
DWIDTH 4 0
BBX 4 8 0 0
BITMAP
F0
00
F0
F0
F0
F0
F0
F0
ENDCHAR
STARTCHAR Gcaron
ENCODING 486
SWIDTH 485 0
DWIDTH 4 0
BBX 4 9 0 0
BITMAP
F0
00
60
F0
C0
F0
F0
F0
70
ENDCHAR
STARTCHAR gcaron
ENCODING 487
SWIDTH 504 0
DWIDTH 4 0
BBX 4 9 0 -1
BITMAP
F0
00
F0
F0
F0
F0
F0
B0
E0
ENDCHAR
STARTCHAR uni01E8
ENCODING 488
SWIDTH 472 0
DWIDTH 4 0
BBX 4 9 0 0
BITMAP
F0
00
F0
E0
E0
E0
E0
E0
F0
ENDCHAR
STARTCHAR uni01E9
ENCODING 489
SWIDTH 491 0
DWIDTH 4 0
BBX 5 9 -1 0
BITMAP
F0
00
60
78
70
70
70
78
78
ENDCHAR
STARTCHAR uni01EA
ENCODING 490
SWIDTH 486 0
DWIDTH 4 0
BBX 4 9 0 -2
BITMAP
60
F0
F0
F0
F0
F0
60
40
60
ENDCHAR
STARTCHAR uni01EB
ENCODING 491
SWIDTH 497 0
DWIDTH 4 0
BBX 4 8 0 -2
BITMAP
60
F0
F0
F0
F0
60
60
30
ENDCHAR
STARTCHAR uni01F0
ENCODING 496
SWIDTH 263 0
DWIDTH 2 0
BBX 4 8 -1 0
BITMAP
F0
00
60
60
60
60
60
60
ENDCHAR
STARTCHAR uni01F1
ENCODING 497
SWIDTH 903 0
DWIDTH 7 0
BBX 7 7 0 0
BITMAP
EE
F2
F6
F4
F4
FC
EE
ENDCHAR
STARTCHAR uni01F2
ENCODING 498
SWIDTH 879 0
DWIDTH 7 0
BBX 7 7 0 0
BITMAP
E0
FE
F6
F4
F4
FC
EE
ENDCHAR
STARTCHAR uni01F3
ENCODING 499
SWIDTH 884 0
DWIDTH 7 0
BBX 7 7 0 0
BITMAP
30
FE
F6
F4
F4
FC
FE
ENDCHAR
STARTCHAR uni01F4
ENCODING 500
SWIDTH 485 0
DWIDTH 4 0
BBX 4 9 0 0
BITMAP
20
60
60
F0
C0
F0
F0
F0
70
ENDCHAR
STARTCHAR uni01F5
ENCODING 501
SWIDTH 504 0
DWIDTH 4 0
BBX 4 9 0 -1
BITMAP
20
60
F0
F0
F0
F0
F0
B0
E0
ENDCHAR
STARTCHAR uni01F8
ENCODING 504
SWIDTH 498 0
DWIDTH 4 0
BBX 4 9 0 0
BITMAP
40
60
F0
F0
F0
F0
F0
F0
F0
ENDCHAR
STARTCHAR uni01F9
ENCODING 505
SWIDTH 499 0
DWIDTH 4 0
BBX 4 8 0 0
BITMAP
40
60
F0
F0
F0
F0
F0
F0
ENDCHAR
STARTCHAR Aringacute
ENCODING 506
SWIDTH 485 0
DWIDTH 4 0
BBX 4 12 0 0
BITMAP
20
60
60
A0
60
60
60
60
E0
F0
F0
B0
ENDCHAR
STARTCHAR aringacute
ENCODING 507
SWIDTH 483 0
DWIDTH 4 0
BBX 4 11 0 0
BITMAP
20
60
60
60
60
60
F0
70
F0
F0
F0
ENDCHAR
STARTCHAR AEacute
ENCODING 508
SWIDTH 640 0
DWIDTH 5 0
BBX 5 9 0 0
BITMAP
10
30
78
70
70
F8
F0
F0
B8
ENDCHAR
STARTCHAR aeacute
ENCODING 509
SWIDTH 731 0
DWIDTH 6 0
BBX 6 8 0 0
BITMAP
10
30
78
FC
7C
F0
FC
78
ENDCHAR
STARTCHAR Oslashacute
ENCODING 510
SWIDTH 482 0
DWIDTH 4 0
BBX 4 11 0 -1
BITMAP
20
60
20
60
F0
F0
F0
F0
F0
60
80
ENDCHAR
STARTCHAR oslashacute
ENCODING 511
SWIDTH 483 0
DWIDTH 4 0
BBX 4 9 0 -1
BITMAP
20
70
60
F0
F0
F0
F0
60
80
ENDCHAR
STARTCHAR uni0200
ENCODING 512
SWIDTH 485 0
DWIDTH 4 0
BBX 4 9 0 0
BITMAP
E0
60
60
60
60
E0
F0
F0
B0
ENDCHAR
STARTCHAR uni0201
ENCODING 513
SWIDTH 483 0
DWIDTH 4 0
BBX 4 8 0 0
BITMAP
E0
60
60
F0
70
F0
F0
F0
ENDCHAR
STARTCHAR uni0202
ENCODING 514
SWIDTH 485 0
DWIDTH 4 0
BBX 4 9 0 0
BITMAP
60
A0
60
60
60
E0
F0
F0
B0
ENDCHAR
STARTCHAR uni0203
ENCODING 515
SWIDTH 483 0
DWIDTH 4 0
BBX 4 8 0 0
BITMAP
60
A0
60
F0
70
F0
F0
F0
ENDCHAR
STARTCHAR uni0204
ENCODING 516
SWIDTH 412 0
DWIDTH 3 0
BBX 3 9 0 0
BITMAP
C0
60
E0
C0
C0
E0
C0
C0
E0
ENDCHAR
STARTCHAR uni0205
ENCODING 517
SWIDTH 488 0
DWIDTH 4 0
BBX 4 8 0 0
BITMAP
E0
60
60
F0
F0
C0
F0
60
ENDCHAR
STARTCHAR uni0206
ENCODING 518
SWIDTH 412 0
DWIDTH 3 0
BBX 3 9 0 0
BITMAP
60
A0
E0
C0
C0
E0
C0
C0
E0
ENDCHAR
STARTCHAR uni0207
ENCODING 519
SWIDTH 488 0
DWIDTH 4 0
BBX 4 8 0 0
BITMAP
60
B0
60
F0
F0
C0
F0
60
ENDCHAR
STARTCHAR uni0208
ENCODING 520
SWIDTH 227 0
DWIDTH 2 0
BBX 3 9 -1 0
BITMAP
E0
60
60
60
60
60
60
60
60
ENDCHAR
STARTCHAR uni0209
ENCODING 521
SWIDTH 235 0
DWIDTH 2 0
BBX 3 8 -1 0
BITMAP
E0
60
60
60
60
60
60
60
ENDCHAR
STARTCHAR uni020A
ENCODING 522
SWIDTH 227 0
DWIDTH 2 0
BBX 3 9 -1 0
BITMAP
60
A0
60
60
60
60
60
60
60
ENDCHAR
STARTCHAR uni020B
ENCODING 523
SWIDTH 257 0
DWIDTH 2 0
BBX 4 8 -1 0
BITMAP
60
D0
60
60
60
60
60
60
ENDCHAR
STARTCHAR uni020C
ENCODING 524
SWIDTH 486 0
DWIDTH 4 0
BBX 4 9 0 0
BITMAP
E0
60
60
F0
F0
F0
F0
F0
60
ENDCHAR
STARTCHAR uni020D
ENCODING 525
SWIDTH 497 0
DWIDTH 4 0
BBX 4 8 0 0
BITMAP
E0
60
60
F0
F0
F0
F0
60
ENDCHAR
STARTCHAR uni020E
ENCODING 526
SWIDTH 486 0
DWIDTH 4 0
BBX 4 9 0 0
BITMAP
60
A0
60
F0
F0
F0
F0
F0
60
ENDCHAR
STARTCHAR uni020F
ENCODING 527
SWIDTH 497 0
DWIDTH 4 0
BBX 4 8 0 0
BITMAP
60
90
60
F0
F0
F0
F0
60
ENDCHAR
STARTCHAR uni0210
ENCODING 528
SWIDTH 477 0
DWIDTH 4 0
BBX 4 9 0 0
BITMAP
C0
60
E0
F0
F0
E0
F0
F0
F0
ENDCHAR
STARTCHAR uni0211
ENCODING 529
SWIDTH 344 0
DWIDTH 3 0
BBX 3 8 0 0
BITMAP
C0
A0
E0
C0
C0
C0
C0
C0
ENDCHAR
STARTCHAR uni0212
ENCODING 530
SWIDTH 477 0
DWIDTH 4 0
BBX 4 9 0 0
BITMAP
60
A0
E0
F0
F0
E0
F0
F0
F0
ENDCHAR
STARTCHAR uni0213
ENCODING 531
SWIDTH 342 0
DWIDTH 3 0
BBX 3 8 0 0
BITMAP
E0
A0
E0
C0
C0
C0
C0
C0
ENDCHAR
STARTCHAR uni0214
ENCODING 532
SWIDTH 474 0
DWIDTH 4 0
BBX 4 9 0 0
BITMAP
E0
60
F0
F0
F0
F0
F0
F0
60
ENDCHAR
STARTCHAR uni0215
ENCODING 533
SWIDTH 499 0
DWIDTH 4 0
BBX 4 8 0 0
BITMAP
E0
60
F0
F0
F0
F0
F0
F0
ENDCHAR
STARTCHAR uni0216
ENCODING 534
SWIDTH 474 0
DWIDTH 4 0
BBX 4 9 0 0
BITMAP
60
A0
F0
F0
F0
F0
F0
F0
60
ENDCHAR
STARTCHAR uni0217
ENCODING 535
SWIDTH 511 0
DWIDTH 4 0
BBX 4 8 0 0
BITMAP
60
D0
F0
F0
F0
F0
F0
F0
ENDCHAR
STARTCHAR Scommaaccent
ENCODING 536
SWIDTH 461 0
DWIDTH 4 0
BBX 4 9 0 -2
BITMAP
60
B0
C0
60
F0
E0
60
60
40
ENDCHAR
STARTCHAR scommaaccent
ENCODING 537
SWIDTH 476 0
DWIDTH 4 0
BBX 4 9 0 -3
BITMAP
60
F0
E0
30
F0
60
00
60
40
ENDCHAR
STARTCHAR uni021A
ENCODING 538
SWIDTH 396 0
DWIDTH 3 0
BBX 3 9 0 -2
BITMAP
E0
40
40
40
40
40
40
40
40
ENDCHAR
STARTCHAR uni021B
ENCODING 539
SWIDTH 305 0
DWIDTH 2 0
BBX 2 9 0 -2
BITMAP
40
C0
40
40
40
40
40
40
40
ENDCHAR
STARTCHAR uni021E
ENCODING 542
SWIDTH 499 0
DWIDTH 4 0
BBX 4 9 0 0
BITMAP
F0
00
F0
F0
F0
F0
F0
F0
F0
ENDCHAR
STARTCHAR uni021F
ENCODING 543
SWIDTH 505 0
DWIDTH 4 0
BBX 5 9 -1 0
BITMAP
F0
00
60
78
78
78
78
78
78
ENDCHAR
STARTCHAR uni0226
ENCODING 550
SWIDTH 485 0
DWIDTH 4 0
BBX 4 8 0 0
BITMAP
60
60
60
60
E0
F0
F0
B0
ENDCHAR
STARTCHAR uni0227
ENCODING 551
SWIDTH 483 0
DWIDTH 4 0
BBX 4 7 0 0
BITMAP
60
60
F0
70
F0
F0
F0
ENDCHAR
STARTCHAR uni0228
ENCODING 552
SWIDTH 412 0
DWIDTH 3 0
BBX 3 10 0 -3
BITMAP
E0
C0
C0
E0
C0
C0
E0
40
20
60
ENDCHAR
STARTCHAR uni0229
ENCODING 553
SWIDTH 488 0
DWIDTH 4 0
BBX 4 9 0 -3
BITMAP
60
F0
F0
C0
F0
E0
40
20
60
ENDCHAR
STARTCHAR uni022A
ENCODING 554
SWIDTH 486 0
DWIDTH 4 0
BBX 4 9 0 0
BITMAP
60
F0
60
F0
F0
F0
F0
F0
60
ENDCHAR
STARTCHAR uni022B
ENCODING 555
SWIDTH 497 0
DWIDTH 4 0
BBX 4 8 0 0
BITMAP
60
F0
60
F0
F0
F0
F0
60
ENDCHAR
STARTCHAR uni022C
ENCODING 556
SWIDTH 486 0
DWIDTH 4 0
BBX 4 9 0 0
BITMAP
60
F0
60
F0
F0
F0
F0
F0
60
ENDCHAR
STARTCHAR uni022D
ENCODING 557
SWIDTH 497 0
DWIDTH 4 0
BBX 4 8 0 0
BITMAP
60
F0
60
F0
F0
F0
F0
60
ENDCHAR
STARTCHAR uni022E
ENCODING 558
SWIDTH 486 0
DWIDTH 4 0
BBX 4 8 0 0
BITMAP
60
60
F0
F0
F0
F0
F0
60
ENDCHAR
STARTCHAR uni022F
ENCODING 559
SWIDTH 497 0
DWIDTH 4 0
BBX 4 7 0 0
BITMAP
60
60
F0
F0
F0
F0
60
ENDCHAR
STARTCHAR uni0230
ENCODING 560
SWIDTH 486 0
DWIDTH 4 0
BBX 4 9 0 0
BITMAP
60
60
60
F0
F0
F0
F0
F0
60
ENDCHAR
STARTCHAR uni0231
ENCODING 561
SWIDTH 497 0
DWIDTH 4 0
BBX 4 8 0 0
BITMAP
60
60
60
F0
F0
F0
F0
60
ENDCHAR
STARTCHAR uni0232
ENCODING 562
SWIDTH 446 0
DWIDTH 4 0
BBX 4 8 0 0
BITMAP
E0
B0
E0
60
60
40
40
40
ENDCHAR
STARTCHAR uni0233
ENCODING 563
SWIDTH 461 0
DWIDTH 4 0
BBX 4 8 0 -1
BITMAP
60
B0
E0
E0
60
60
60
C0
ENDCHAR
STARTCHAR uni0237
ENCODING 567
SWIDTH 263 0
DWIDTH 2 0
BBX 2 6 0 0
BITMAP
C0
C0
C0
C0
C0
C0
ENDCHAR
STARTCHAR uni0259
ENCODING 601
SWIDTH 488 0
DWIDTH 4 0
BBX 4 6 0 0
BITMAP
60
F0
30
F0
F0
60
ENDCHAR
STARTCHAR uni02BC
ENCODING 700
SWIDTH 293 0
DWIDTH 2 0
BBX 2 2 0 4
BITMAP
C0
40
ENDCHAR
STARTCHAR circumflex
ENCODING 710
SWIDTH 474 0
DWIDTH 4 0
BBX 4 1 0 7
BITMAP
F0
ENDCHAR
STARTCHAR caron
ENCODING 711
SWIDTH 474 0
DWIDTH 4 0
BBX 4 1 0 7
BITMAP
F0
ENDCHAR
STARTCHAR uni02C9
ENCODING 713
SWIDTH 293 0
DWIDTH 2 0
BBX 2 1 0 6
BITMAP
C0
ENDCHAR
STARTCHAR breve
ENCODING 728
SWIDTH 496 0
DWIDTH 4 0
BBX 4 2 0 6
BITMAP
B0
60
ENDCHAR
STARTCHAR dotaccent
ENCODING 729
SWIDTH 240 0
DWIDTH 2 0
BBX 2 1 0 6
BITMAP
C0
ENDCHAR
STARTCHAR ring
ENCODING 730
SWIDTH 393 0
DWIDTH 3 0
BBX 3 3 0 6
BITMAP
60
A0
E0
ENDCHAR
STARTCHAR ogonek
ENCODING 731
SWIDTH 496 0
DWIDTH 4 0
BBX 2 3 1 -3
BITMAP
40
80
C0
ENDCHAR
STARTCHAR tilde
ENCODING 732
SWIDTH 496 0
DWIDTH 4 0
BBX 4 1 0 6
BITMAP
F0
ENDCHAR
STARTCHAR hungarumlaut
ENCODING 733
SWIDTH 635 0
DWIDTH 5 0
BBX 3 2 1 6
BITMAP
E0
C0
ENDCHAR
STARTCHAR gravecomb
ENCODING 768
SWIDTH 0 0
DWIDTH 0 0
BBX 2 2 -1 6
BITMAP
80
C0
ENDCHAR
STARTCHAR acutecomb
ENCODING 769
SWIDTH 0 0
DWIDTH 0 0
BBX 2 2 -1 6
BITMAP
40
C0
ENDCHAR
STARTCHAR uni0302
ENCODING 770
SWIDTH 0 0
DWIDTH 0 0
BBX 4 1 -2 7
BITMAP
F0
ENDCHAR
STARTCHAR tildecomb
ENCODING 771
SWIDTH 0 0
DWIDTH 0 0
BBX 4 1 -2 6
BITMAP
F0
ENDCHAR
STARTCHAR uni0304
ENCODING 772
SWIDTH 0 0
DWIDTH 0 0
BBX 2 1 -1 6
BITMAP
C0
ENDCHAR
STARTCHAR uni0306
ENCODING 774
SWIDTH 0 0
DWIDTH 0 0
BBX 4 2 -2 6
BITMAP
90
60
ENDCHAR
STARTCHAR uni0307
ENCODING 775
SWIDTH 0 0
DWIDTH 0 0
BBX 2 1 -1 6
BITMAP
C0
ENDCHAR
STARTCHAR uni0308
ENCODING 776
SWIDTH 0 0
DWIDTH 0 0
BBX 4 1 -2 7
BITMAP
F0
ENDCHAR
STARTCHAR hookabovecomb
ENCODING 777
SWIDTH 0 0
DWIDTH 0 0
BBX 2 3 -1 6
BITMAP
C0
40
80
ENDCHAR
STARTCHAR uni030A
ENCODING 778
SWIDTH 0 0
DWIDTH 0 0
BBX 2 3 -1 6
BITMAP
C0
C0
C0
ENDCHAR
STARTCHAR uni030B
ENCODING 779
SWIDTH 0 0
DWIDTH 0 0
BBX 2 2 -1 6
BITMAP
C0
80
ENDCHAR
STARTCHAR uni030C
ENCODING 780
SWIDTH 0 0
DWIDTH 0 0
BBX 4 1 -2 7
BITMAP
F0
ENDCHAR
STARTCHAR uni030F
ENCODING 783
SWIDTH 0 0
DWIDTH 0 0
BBX 3 2 -2 6
BITMAP
E0
60
ENDCHAR
STARTCHAR uni0311
ENCODING 785
SWIDTH 0 0
DWIDTH 0 0
BBX 2 2 -1 6
BITMAP
C0
C0
ENDCHAR
STARTCHAR uni031B
ENCODING 795
SWIDTH 0 0
DWIDTH 0 0
BBX 2 2 0 6
BITMAP
40
80
ENDCHAR
STARTCHAR dotbelowcomb
ENCODING 803
SWIDTH 0 0
DWIDTH 0 0
BBX 2 1 -1 -1
BITMAP
C0
ENDCHAR
STARTCHAR uni0324
ENCODING 804
SWIDTH 0 0
DWIDTH 0 0
BBX 4 1 -2 -1
BITMAP
F0
ENDCHAR
STARTCHAR uni0326
ENCODING 806
SWIDTH 0 0
DWIDTH 0 0
BBX 2 2 -1 -2
BITMAP
C0
C0
ENDCHAR
STARTCHAR uni0327
ENCODING 807
SWIDTH 0 0
DWIDTH 0 0
BBX 2 3 -1 -3
BITMAP
80
40
C0
ENDCHAR
STARTCHAR uni0328
ENCODING 808
SWIDTH 0 0
DWIDTH 0 0
BBX 2 3 -1 -3
BITMAP
40
80
C0
ENDCHAR
STARTCHAR uni032E
ENCODING 814
SWIDTH 0 0
DWIDTH 0 0
BBX 4 2 -2 -2
BITMAP
90
60
ENDCHAR
STARTCHAR uni0331
ENCODING 817
SWIDTH 0 0
DWIDTH 0 0
BBX 2 1 -1 -1
BITMAP
C0
ENDCHAR
STARTCHAR uni0335
ENCODING 821
SWIDTH 0 0
DWIDTH 0 0
BBX 2 1 -1 3
BITMAP
C0
ENDCHAR
STARTCHAR uni0394
ENCODING 916
SWIDTH 539 0
DWIDTH 4 0
BBX 4 7 0 0
BITMAP
60
60
60
70
70
90
F0
ENDCHAR
STARTCHAR Sigma
ENCODING 931
SWIDTH 408 0
DWIDTH 3 0
BBX 3 7 0 0
BITMAP
E0
C0
40
60
40
40
E0
ENDCHAR
STARTCHAR pi
ENCODING 960
SWIDTH 606 0
DWIDTH 5 0
BBX 5 6 0 0
BITMAP
F8
50
50
50
50
50
ENDCHAR
STARTCHAR uni10E2
ENCODING 4322
SWIDTH 640 0
DWIDTH 5 0
BBX 5 8 0 0
BITMAP
30
78
70
70
F8
F0
F0
B8
ENDCHAR
STARTCHAR uni10E3
ENCODING 4323
SWIDTH 731 0
DWIDTH 6 0
BBX 6 7 0 0
BITMAP
30
78
FC
7C
F0
FC
78
ENDCHAR
STARTCHAR uni1E02
ENCODING 7682
SWIDTH 479 0
DWIDTH 4 0
BBX 4 8 0 0
BITMAP
40
E0
F0
F0
E0
F0
F0
E0
ENDCHAR
STARTCHAR uni1E03
ENCODING 7683
SWIDTH 501 0
DWIDTH 4 0
BBX 4 8 0 0
BITMAP
C0
C0
F0
F0
F0
F0
F0
F0
ENDCHAR
STARTCHAR uni1E0A
ENCODING 7690
SWIDTH 493 0
DWIDTH 4 0
BBX 4 8 0 0
BITMAP
60
E0
F0
F0
F0
F0
F0
E0
ENDCHAR
STARTCHAR uni1E0B
ENCODING 7691
SWIDTH 498 0
DWIDTH 4 0
BBX 4 8 0 0
BITMAP
30
30
F0
F0
F0
F0
F0
F0
ENDCHAR
STARTCHAR uni1E1E
ENCODING 7710
SWIDTH 399 0
DWIDTH 3 0
BBX 3 8 0 0
BITMAP
40
E0
C0
C0
E0
C0
C0
C0
ENDCHAR
STARTCHAR uni1E1F
ENCODING 7711
SWIDTH 280 0
DWIDTH 2 0
BBX 2 8 0 0
BITMAP
40
C0
C0
C0
C0
C0
C0
C0
ENDCHAR
STARTCHAR uni1E40
ENCODING 7744
SWIDTH 746 0
DWIDTH 6 0
BBX 6 8 0 0
BITMAP
30
DC
FC
FC
FC
FC
FC
FC
ENDCHAR
STARTCHAR uni1E41
ENCODING 7745
SWIDTH 758 0
DWIDTH 6 0
BBX 6 7 0 0
BITMAP
30
FC
FC
FC
FC
FC
FC
ENDCHAR
STARTCHAR uni1E56
ENCODING 7766
SWIDTH 472 0
DWIDTH 4 0
BBX 4 8 0 0
BITMAP
60
E0
F0
F0
E0
C0
C0
C0
ENDCHAR
STARTCHAR uni1E57
ENCODING 7767
SWIDTH 500 0
DWIDTH 4 0
BBX 4 8 0 -1
BITMAP
60
F0
F0
F0
F0
F0
F0
C0
ENDCHAR
STARTCHAR uni1E60
ENCODING 7776
SWIDTH 461 0
DWIDTH 4 0
BBX 4 8 0 0
BITMAP
60
60
B0
C0
60
F0
E0
60
ENDCHAR
STARTCHAR uni1E61
ENCODING 7777
SWIDTH 475 0
DWIDTH 4 0
BBX 4 7 0 0
BITMAP
60
60
F0
E0
30
F0
60
ENDCHAR
STARTCHAR uni1E6A
ENCODING 7786
SWIDTH 396 0
DWIDTH 3 0
BBX 3 8 0 0
BITMAP
40
E0
40
40
40
40
40
40
ENDCHAR
STARTCHAR uni1E6B
ENCODING 7787
SWIDTH 305 0
DWIDTH 2 0
BBX 2 8 0 0
BITMAP
40
40
C0
40
40
40
40
40
ENDCHAR
STARTCHAR Wgrave
ENCODING 7808
SWIDTH 712 0
DWIDTH 6 0
BBX 6 9 0 0
BITMAP
20
30
BC
F8
F8
F8
78
78
78
ENDCHAR
STARTCHAR wgrave
ENCODING 7809
SWIDTH 696 0
DWIDTH 6 0
BBX 5 8 0 0
BITMAP
20
30
A8
F8
F8
78
78
78
ENDCHAR
STARTCHAR Wacute
ENCODING 7810
SWIDTH 712 0
DWIDTH 6 0
BBX 6 9 0 0
BITMAP
10
30
BC
F8
F8
F8
78
78
78
ENDCHAR
STARTCHAR wacute
ENCODING 7811
SWIDTH 696 0
DWIDTH 6 0
BBX 5 8 0 0
BITMAP
10
30
A8
F8
F8
78
78
78
ENDCHAR
STARTCHAR Wdieresis
ENCODING 7812
SWIDTH 712 0
DWIDTH 6 0
BBX 6 9 0 0
BITMAP
78
00
BC
F8
F8
F8
78
78
78
ENDCHAR
STARTCHAR wdieresis
ENCODING 7813
SWIDTH 696 0
DWIDTH 6 0
BBX 5 8 0 0
BITMAP
70
00
A8
F8
F8
78
78
78
ENDCHAR
STARTCHAR uni1E9E
ENCODING 7838
SWIDTH 498 0
DWIDTH 4 0
BBX 4 7 0 0
BITMAP
70
F0
E0
F0
F0
F0
E0
ENDCHAR
STARTCHAR uni1EA0
ENCODING 7840
SWIDTH 485 0
DWIDTH 4 0
BBX 4 8 0 -1
BITMAP
60
60
60
E0
F0
F0
B0
60
ENDCHAR
STARTCHAR uni1EA1
ENCODING 7841
SWIDTH 483 0
DWIDTH 4 0
BBX 4 7 0 -1
BITMAP
60
F0
70
F0
F0
F0
60
ENDCHAR
STARTCHAR uni1EA2
ENCODING 7842
SWIDTH 485 0
DWIDTH 4 0
BBX 4 10 0 0
BITMAP
60
20
40
60
60
60
E0
F0
F0
B0
ENDCHAR
STARTCHAR uni1EA3
ENCODING 7843
SWIDTH 483 0
DWIDTH 4 0
BBX 4 9 0 0
BITMAP
60
20
40
60
F0
70
F0
F0
F0
ENDCHAR
STARTCHAR uni1EA4
ENCODING 7844
SWIDTH 485 0
DWIDTH 4 0
BBX 5 9 0 0
BITMAP
18
60
E0
60
60
E0
F0
F0
B0
ENDCHAR
STARTCHAR uni1EA5
ENCODING 7845
SWIDTH 483 0
DWIDTH 4 0
BBX 5 8 0 0
BITMAP
18
E0
70
F0
70
F0
F0
F0
ENDCHAR
STARTCHAR uni1EA6
ENCODING 7846
SWIDTH 485 0
DWIDTH 4 0
BBX 4 9 0 0
BITMAP
70
E0
60
60
60
E0
F0
F0
B0
ENDCHAR
STARTCHAR uni1EA7
ENCODING 7847
SWIDTH 483 0
DWIDTH 4 0
BBX 4 8 0 0
BITMAP
30
E0
70
F0
70
F0
F0
F0
ENDCHAR
STARTCHAR uni1EA8
ENCODING 7848
SWIDTH 485 0
DWIDTH 4 0
BBX 4 9 0 0
BITMAP
10
70
E0
60
60
E0
F0
F0
B0
ENDCHAR
STARTCHAR uni1EA9
ENCODING 7849
SWIDTH 483 0
DWIDTH 4 0
BBX 4 10 0 0
BITMAP
10
10
60
90
60
F0
70
F0
F0
F0
ENDCHAR
STARTCHAR uni1EAA
ENCODING 7850
SWIDTH 485 0
DWIDTH 4 0
BBX 4 9 0 0
BITMAP
60
60
E0
60
60
E0
F0
F0
B0
ENDCHAR
STARTCHAR uni1EAB
ENCODING 7851
SWIDTH 483 0
DWIDTH 4 0
BBX 4 9 0 0
BITMAP
50
A0
E0
70
F0
70
F0
F0
F0
ENDCHAR
STARTCHAR uni1EAC
ENCODING 7852
SWIDTH 485 0
DWIDTH 4 0
BBX 4 10 0 -1
BITMAP
E0
10
60
60
60
E0
F0
F0
B0
60
ENDCHAR
STARTCHAR uni1EAD
ENCODING 7853
SWIDTH 483 0
DWIDTH 4 0
BBX 4 9 0 -1
BITMAP
E0
10
60
F0
70
F0
F0
F0
60
ENDCHAR
STARTCHAR uni1EAE
ENCODING 7854
SWIDTH 485 0
DWIDTH 4 0
BBX 4 9 0 0
BITMAP
60
60
60
60
60
E0
F0
F0
B0
ENDCHAR
STARTCHAR uni1EAF
ENCODING 7855
SWIDTH 483 0
DWIDTH 4 0
BBX 4 10 0 0
BITMAP
20
60
B0
60
60
F0
70
F0
F0
F0
ENDCHAR
STARTCHAR uni1EB0
ENCODING 7856
SWIDTH 485 0
DWIDTH 4 0
BBX 4 9 0 0
BITMAP
60
60
60
60
60
E0
F0
F0
B0
ENDCHAR
STARTCHAR uni1EB1
ENCODING 7857
SWIDTH 483 0
DWIDTH 4 0
BBX 4 9 0 0
BITMAP
60
B0
60
60
F0
70
F0
F0
F0
ENDCHAR
STARTCHAR uni1EB2
ENCODING 7858
SWIDTH 485 0
DWIDTH 4 0
BBX 4 10 0 0
BITMAP
20
20
60
60
60
60
E0
F0
F0
B0
ENDCHAR
STARTCHAR uni1EB3
ENCODING 7859
SWIDTH 483 0
DWIDTH 4 0
BBX 4 10 0 0
BITMAP
60
20
F0
60
60
F0
70
F0
F0
F0
ENDCHAR
STARTCHAR uni1EB4
ENCODING 7860
SWIDTH 485 0
DWIDTH 4 0
BBX 4 9 0 0
BITMAP
60
60
60
60
60
E0
F0
F0
B0
ENDCHAR
STARTCHAR uni1EB5
ENCODING 7861
SWIDTH 483 0
DWIDTH 4 0
BBX 4 9 0 0
BITMAP
50
B0
60
60
F0
70
F0
F0
F0
ENDCHAR
STARTCHAR uni1EB6
ENCODING 7862
SWIDTH 485 0
DWIDTH 4 0
BBX 4 10 0 -1
BITMAP
A0
60
60
60
60
E0
F0
F0
B0
60
ENDCHAR
STARTCHAR uni1EB7
ENCODING 7863
SWIDTH 483 0
DWIDTH 4 0
BBX 4 9 0 -1
BITMAP
90
60
60
F0
70
F0
F0
F0
60
ENDCHAR
STARTCHAR uni1EB8
ENCODING 7864
SWIDTH 412 0
DWIDTH 3 0
BBX 3 8 0 -1
BITMAP
E0
C0
C0
E0
C0
C0
E0
40
ENDCHAR
STARTCHAR uni1EB9
ENCODING 7865
SWIDTH 488 0
DWIDTH 4 0
BBX 4 7 0 -1
BITMAP
60
F0
F0
C0
F0
60
60
ENDCHAR
STARTCHAR uni1EBA
ENCODING 7866
SWIDTH 412 0
DWIDTH 3 0
BBX 3 10 0 0
BITMAP
60
20
40
E0
C0
C0
E0
C0
C0
E0
ENDCHAR
STARTCHAR uni1EBB
ENCODING 7867
SWIDTH 488 0
DWIDTH 4 0
BBX 4 9 0 0
BITMAP
60
20
40
60
F0
F0
C0
F0
60
ENDCHAR
STARTCHAR uni1EBC
ENCODING 7868
SWIDTH 412 0
DWIDTH 3 0
BBX 3 8 0 0
BITMAP
E0
E0
C0
C0
E0
C0
C0
E0
ENDCHAR
STARTCHAR uni1EBD
ENCODING 7869
SWIDTH 488 0
DWIDTH 4 0
BBX 4 7 0 0
BITMAP
F0
60
F0
F0
C0
F0
60
ENDCHAR
STARTCHAR uni1EBE
ENCODING 7870
SWIDTH 412 0
DWIDTH 3 0
BBX 4 9 0 0
BITMAP
10
60
E0
C0
C0
E0
C0
C0
E0
ENDCHAR
STARTCHAR uni1EBF
ENCODING 7871
SWIDTH 488 0
DWIDTH 4 0
BBX 5 8 0 0
BITMAP
18
E0
70
F0
F0
C0
F0
60
ENDCHAR
STARTCHAR uni1EC0
ENCODING 7872
SWIDTH 412 0
DWIDTH 3 0
BBX 4 9 0 0
BITMAP
70
E0
E0
C0
C0
E0
C0
C0
E0
ENDCHAR
STARTCHAR uni1EC1
ENCODING 7873
SWIDTH 488 0
DWIDTH 4 0
BBX 4 8 0 0
BITMAP
30
E0
70
F0
F0
C0
F0
60
ENDCHAR
STARTCHAR uni1EC2
ENCODING 7874
SWIDTH 412 0
DWIDTH 3 0
BBX 4 9 0 0
BITMAP
10
60
E0
C0
C0
E0
C0
C0
E0
ENDCHAR
STARTCHAR uni1EC3
ENCODING 7875
SWIDTH 488 0
DWIDTH 4 0
BBX 4 10 0 0
BITMAP
10
10
60
90
60
F0
F0
C0
F0
60
ENDCHAR
STARTCHAR uni1EC4
ENCODING 7876
SWIDTH 412 0
DWIDTH 3 0
BBX 3 9 0 0
BITMAP
E0
60
E0
C0
C0
E0
C0
C0
E0
ENDCHAR
STARTCHAR uni1EC5
ENCODING 7877
SWIDTH 488 0
DWIDTH 4 0
BBX 4 9 0 0
BITMAP
50
A0
E0
70
F0
F0
C0
F0
60
ENDCHAR
STARTCHAR uni1EC6
ENCODING 7878
SWIDTH 412 0
DWIDTH 3 0
BBX 3 10 0 -1
BITMAP
E0
00
E0
C0
C0
E0
C0
C0
E0
40
ENDCHAR
STARTCHAR uni1EC7
ENCODING 7879
SWIDTH 488 0
DWIDTH 4 0
BBX 4 9 0 -1
BITMAP
E0
10
60
F0
F0
C0
F0
60
60
ENDCHAR
STARTCHAR uni1EC8
ENCODING 7880
SWIDTH 227 0
DWIDTH 2 0
BBX 2 10 0 0
BITMAP
C0
40
80
C0
C0
C0
C0
C0
C0
C0
ENDCHAR
STARTCHAR uni1EC9
ENCODING 7881
SWIDTH 235 0
DWIDTH 2 0
BBX 2 9 0 0
BITMAP
C0
40
80
C0
C0
C0
C0
C0
C0
ENDCHAR
STARTCHAR uni1ECA
ENCODING 7882
SWIDTH 227 0
DWIDTH 2 0
BBX 2 8 0 -1
BITMAP
C0
C0
C0
C0
C0
C0
C0
C0
ENDCHAR
STARTCHAR uni1ECB
ENCODING 7883
SWIDTH 243 0
DWIDTH 2 0
BBX 2 8 0 -1
BITMAP
C0
C0
C0
C0
C0
C0
C0
C0
ENDCHAR
STARTCHAR uni1ECC
ENCODING 7884
SWIDTH 486 0
DWIDTH 4 0
BBX 4 8 0 -1
BITMAP
60
F0
F0
F0
F0
F0
60
60
ENDCHAR
STARTCHAR uni1ECD
ENCODING 7885
SWIDTH 497 0
DWIDTH 4 0
BBX 4 7 0 -1
BITMAP
60
F0
F0
F0
F0
60
60
ENDCHAR
STARTCHAR uni1ECE
ENCODING 7886
SWIDTH 486 0
DWIDTH 4 0
BBX 4 10 0 0
BITMAP
60
20
40
60
F0
F0
F0
F0
F0
60
ENDCHAR
STARTCHAR uni1ECF
ENCODING 7887
SWIDTH 497 0
DWIDTH 4 0
BBX 4 9 0 0
BITMAP
60
20
40
60
F0
F0
F0
F0
60
ENDCHAR
STARTCHAR uni1ED0
ENCODING 7888
SWIDTH 486 0
DWIDTH 4 0
BBX 5 9 0 0
BITMAP
18
60
E0
F0
F0
F0
F0
F0
60
ENDCHAR
STARTCHAR uni1ED1
ENCODING 7889
SWIDTH 497 0
DWIDTH 4 0
BBX 5 8 0 0
BITMAP
18
E0
70
F0
F0
F0
F0
60
ENDCHAR
STARTCHAR uni1ED2
ENCODING 7890
SWIDTH 486 0
DWIDTH 4 0
BBX 4 9 0 0
BITMAP
70
E0
60
F0
F0
F0
F0
F0
60
ENDCHAR
STARTCHAR uni1ED3
ENCODING 7891
SWIDTH 497 0
DWIDTH 4 0
BBX 4 8 0 0
BITMAP
30
E0
70
F0
F0
F0
F0
60
ENDCHAR
STARTCHAR uni1ED4
ENCODING 7892
SWIDTH 486 0
DWIDTH 4 0
BBX 4 9 0 0
BITMAP
10
70
E0
F0
F0
F0
F0
F0
60
ENDCHAR
STARTCHAR uni1ED5
ENCODING 7893
SWIDTH 497 0
DWIDTH 4 0
BBX 4 10 0 0
BITMAP
10
10
60
90
60
F0
F0
F0
F0
60
ENDCHAR
STARTCHAR uni1ED6
ENCODING 7894
SWIDTH 486 0
DWIDTH 4 0
BBX 4 9 0 0
BITMAP
60
60
E0
F0
F0
F0
F0
F0
60
ENDCHAR
STARTCHAR uni1ED7
ENCODING 7895
SWIDTH 497 0
DWIDTH 4 0
BBX 4 9 0 0
BITMAP
50
A0
E0
70
F0
F0
F0
F0
60
ENDCHAR
STARTCHAR uni1ED8
ENCODING 7896
SWIDTH 486 0
DWIDTH 4 0
BBX 4 10 0 -1
BITMAP
E0
10
60
F0
F0
F0
F0
F0
60
60
ENDCHAR
STARTCHAR uni1ED9
ENCODING 7897
SWIDTH 497 0
DWIDTH 4 0
BBX 4 9 0 -1
BITMAP
E0
10
60
F0
F0
F0
F0
60
60
ENDCHAR
STARTCHAR uni1EDA
ENCODING 7898
SWIDTH 490 0
DWIDTH 4 0
BBX 4 10 0 0
BITMAP
20
60
10
60
F0
F0
F0
F0
F0
60
ENDCHAR
STARTCHAR uni1EDB
ENCODING 7899
SWIDTH 497 0
DWIDTH 4 0
BBX 4 8 0 0
BITMAP
20
70
60
F0
F0
F0
F0
60
ENDCHAR
STARTCHAR uni1EDC
ENCODING 7900
SWIDTH 490 0
DWIDTH 4 0
BBX 4 10 0 0
BITMAP
40
60
10
60
F0
F0
F0
F0
F0
60
ENDCHAR
STARTCHAR uni1EDD
ENCODING 7901
SWIDTH 497 0
DWIDTH 4 0
BBX 4 9 0 0
BITMAP
40
60
10
60
F0
F0
F0
F0
60
ENDCHAR
STARTCHAR uni1EDE
ENCODING 7902
SWIDTH 490 0
DWIDTH 4 0
BBX 4 10 0 0
BITMAP
60
20
50
60
F0
F0
F0
F0
F0
60
ENDCHAR
STARTCHAR uni1EDF
ENCODING 7903
SWIDTH 497 0
DWIDTH 4 0
BBX 4 9 0 0
BITMAP
60
20
50
60
F0
F0
F0
F0
60
ENDCHAR
STARTCHAR uni1EE0
ENCODING 7904
SWIDTH 490 0
DWIDTH 4 0
BBX 4 9 0 0
BITMAP
F0
10
60
F0
F0
F0
F0
F0
60
ENDCHAR
STARTCHAR uni1EE1
ENCODING 7905
SWIDTH 497 0
DWIDTH 4 0
BBX 4 7 0 0
BITMAP
F0
60
F0
F0
F0
F0
60
ENDCHAR
STARTCHAR uni1EE2
ENCODING 7906
SWIDTH 490 0
DWIDTH 4 0
BBX 4 9 0 -1
BITMAP
10
60
F0
F0
F0
F0
F0
60
60
ENDCHAR
STARTCHAR uni1EE3
ENCODING 7907
SWIDTH 497 0
DWIDTH 4 0
BBX 4 8 0 -1
BITMAP
10
60
F0
F0
F0
F0
60
60
ENDCHAR
STARTCHAR uni1EE4
ENCODING 7908
SWIDTH 474 0
DWIDTH 4 0
BBX 4 8 0 -1
BITMAP
F0
F0
F0
F0
F0
F0
60
60
ENDCHAR
STARTCHAR uni1EE5
ENCODING 7909
SWIDTH 499 0
DWIDTH 4 0
BBX 4 7 0 -1
BITMAP
F0
F0
F0
F0
F0
F0
60
ENDCHAR
STARTCHAR uni1EE6
ENCODING 7910
SWIDTH 474 0
DWIDTH 4 0
BBX 4 10 0 0
BITMAP
60
20
40
F0
F0
F0
F0
F0
F0
60
ENDCHAR
STARTCHAR uni1EE7
ENCODING 7911
SWIDTH 499 0
DWIDTH 4 0
BBX 4 9 0 0
BITMAP
60
20
40
F0
F0
F0
F0
F0
F0
ENDCHAR
STARTCHAR uni1EE8
ENCODING 7912
SWIDTH 569 0
DWIDTH 5 0
BBX 4 9 0 0
BITMAP
20
70
F0
F0
F0
F0
F0
F0
60
ENDCHAR
STARTCHAR uni1EE9
ENCODING 7913
SWIDTH 570 0
DWIDTH 5 0
BBX 5 8 0 0
BITMAP
20
78
F0
F0
F0
F0
F0
F0
ENDCHAR
STARTCHAR uni1EEA
ENCODING 7914
SWIDTH 569 0
DWIDTH 5 0
BBX 4 9 0 0
BITMAP
80
70
F0
F0
F0
F0
F0
F0
60
ENDCHAR
STARTCHAR uni1EEB
ENCODING 7915
SWIDTH 570 0
DWIDTH 5 0
BBX 5 8 0 0
BITMAP
40
78
F0
F0
F0
F0
F0
F0
ENDCHAR
STARTCHAR uni1EEC
ENCODING 7916
SWIDTH 569 0
DWIDTH 5 0
BBX 4 10 0 0
BITMAP
60
20
50
F0
F0
F0
F0
F0
F0
60
ENDCHAR
STARTCHAR uni1EED
ENCODING 7917
SWIDTH 570 0
DWIDTH 5 0
BBX 5 9 0 0
BITMAP
60
20
58
F0
F0
F0
F0
F0
F0
ENDCHAR
STARTCHAR uni1EEE
ENCODING 7918
SWIDTH 569 0
DWIDTH 5 0
BBX 4 8 0 0
BITMAP
70
F0
F0
F0
F0
F0
F0
60
ENDCHAR
STARTCHAR uni1EEF
ENCODING 7919
SWIDTH 570 0
DWIDTH 5 0
BBX 5 7 0 0
BITMAP
78
F0
F0
F0
F0
F0
F0
ENDCHAR
STARTCHAR uni1EF0
ENCODING 7920
SWIDTH 569 0
DWIDTH 5 0
BBX 4 9 0 -1
BITMAP
10
F0
F0
F0
F0
F0
F0
60
60
ENDCHAR
STARTCHAR uni1EF1
ENCODING 7921
SWIDTH 570 0
DWIDTH 5 0
BBX 5 8 0 -1
BITMAP
18
F0
F0
F0
F0
F0
F0
60
ENDCHAR
STARTCHAR Ygrave
ENCODING 7922
SWIDTH 446 0
DWIDTH 4 0
BBX 4 9 0 0
BITMAP
40
60
B0
E0
60
60
40
40
40
ENDCHAR
STARTCHAR ygrave
ENCODING 7923
SWIDTH 461 0
DWIDTH 4 0
BBX 4 9 0 -1
BITMAP
40
60
B0
E0
E0
60
60
60
C0
ENDCHAR
STARTCHAR uni1EF4
ENCODING 7924
SWIDTH 446 0
DWIDTH 4 0
BBX 4 8 0 -1
BITMAP
B0
E0
60
60
40
40
40
40
ENDCHAR
STARTCHAR uni1EF5
ENCODING 7925
SWIDTH 461 0
DWIDTH 4 0
BBX 4 8 0 -2
BITMAP
B0
E0
E0
60
60
60
C0
40
ENDCHAR
STARTCHAR uni1EF6
ENCODING 7926
SWIDTH 446 0
DWIDTH 4 0
BBX 4 10 0 0
BITMAP
60
20
40
B0
E0
60
60
40
40
40
ENDCHAR
STARTCHAR uni1EF7
ENCODING 7927
SWIDTH 461 0
DWIDTH 4 0
BBX 4 10 0 -1
BITMAP
60
20
40
B0
E0
E0
60
60
60
C0
ENDCHAR
STARTCHAR uni1EF8
ENCODING 7928
SWIDTH 446 0
DWIDTH 4 0
BBX 4 8 0 0
BITMAP
E0
B0
E0
60
60
40
40
40
ENDCHAR
STARTCHAR uni1EF9
ENCODING 7929
SWIDTH 461 0
DWIDTH 4 0
BBX 4 8 0 -1
BITMAP
E0
B0
E0
E0
60
60
60
C0
ENDCHAR
STARTCHAR endash
ENCODING 8211
SWIDTH 311 0
DWIDTH 2 0
BBX 2 1 0 2
BITMAP
C0
ENDCHAR
STARTCHAR emdash
ENCODING 8212
SWIDTH 563 0
DWIDTH 5 0
BBX 4 1 0 2
BITMAP
F0
ENDCHAR
STARTCHAR quoteleft
ENCODING 8216
SWIDTH 235 0
DWIDTH 2 0
BBX 2 2 0 5
BITMAP
80
C0
ENDCHAR
STARTCHAR quoteright
ENCODING 8217
SWIDTH 232 0
DWIDTH 2 0
BBX 2 2 0 5
BITMAP
C0
C0
ENDCHAR
STARTCHAR quotesinglbase
ENCODING 8218
SWIDTH 236 0
DWIDTH 2 0
BBX 2 2 0 -1
BITMAP
C0
C0
ENDCHAR
STARTCHAR quotedblleft
ENCODING 8220
SWIDTH 464 0
DWIDTH 4 0
BBX 4 2 0 5
BITMAP
A0
F0
ENDCHAR
STARTCHAR quotedblright
ENCODING 8221
SWIDTH 463 0
DWIDTH 4 0
BBX 4 2 0 5
BITMAP
F0
E0
ENDCHAR
STARTCHAR quotedblbase
ENCODING 8222
SWIDTH 467 0
DWIDTH 4 0
BBX 4 2 0 -1
BITMAP
F0
E0
ENDCHAR
STARTCHAR dagger
ENCODING 8224
SWIDTH 385 0
DWIDTH 3 0
BBX 3 6 0 0
BITMAP
40
E0
40
40
40
40
ENDCHAR
STARTCHAR daggerdbl
ENCODING 8225
SWIDTH 394 0
DWIDTH 3 0
BBX 3 6 0 0
BITMAP
40
E0
40
E0
40
40
ENDCHAR
STARTCHAR bullet
ENCODING 8226
SWIDTH 352 0
DWIDTH 3 0
BBX 3 3 0 2
BITMAP
40
E0
C0
ENDCHAR
STARTCHAR ellipsis
ENCODING 8230
SWIDTH 708 0
DWIDTH 6 0
BBX 5 1 0 0
BITMAP
F8
ENDCHAR
STARTCHAR perthousand
ENCODING 8240
SWIDTH 1480 0
DWIDTH 12 0
BBX 12 7 0 0
BITMAP
6400
AC00
AB60
AD70
FD70
1570
1360
ENDCHAR
STARTCHAR guilsinglleft
ENCODING 8249
SWIDTH 296 0
DWIDTH 2 0
BBX 2 4 0 1
BITMAP
40
C0
C0
40
ENDCHAR
STARTCHAR guilsinglright
ENCODING 8250
SWIDTH 296 0
DWIDTH 2 0
BBX 2 4 0 1
BITMAP
80
C0
C0
80
ENDCHAR
STARTCHAR fraction
ENCODING 8260
SWIDTH 226 0
DWIDTH 2 0
BBX 4 7 -1 0
BITMAP
30
20
20
40
40
40
80
ENDCHAR
STARTCHAR uni2074
ENCODING 8308
SWIDTH 306 0
DWIDTH 2 0
BBX 2 3 0 4
BITMAP
40
C0
C0
ENDCHAR
STARTCHAR colonmonetary
ENCODING 8353
SWIDTH 509 0
DWIDTH 4 0
BBX 4 7 0 0
BITMAP
20
70
F0
E0
D0
50
60
ENDCHAR
STARTCHAR franc
ENCODING 8355
SWIDTH 508 0
DWIDTH 4 0
BBX 2 6 1 0
BITMAP
C0
80
C0
80
C0
80
ENDCHAR
STARTCHAR lira
ENCODING 8356
SWIDTH 474 0
DWIDTH 4 0
BBX 4 6 0 0
BITMAP
60
F0
E0
E0
40
F0
ENDCHAR
STARTCHAR uni20A6
ENCODING 8358
SWIDTH 511 0
DWIDTH 4 0
BBX 4 7 0 0
BITMAP
50
50
F0
D0
F0
B0
B0
ENDCHAR
STARTCHAR peseta
ENCODING 8359
SWIDTH 1096 0
DWIDTH 9 0
BBX 9 6 0 0
BITMAP
EB00
AB80
AA00
E900
8B80
8B00
ENDCHAR
STARTCHAR uni20A9
ENCODING 8361
SWIDTH 600 0
DWIDTH 5 0
BBX 5 7 0 0
BITMAP
A8
A8
F8
F8
50
50
50
ENDCHAR
STARTCHAR dong
ENCODING 8363
SWIDTH 509 0
DWIDTH 4 0
BBX 4 7 0 -1
BITMAP
70
60
E0
E0
E0
60
E0
ENDCHAR
STARTCHAR Euro
ENCODING 8364
SWIDTH 525 0
DWIDTH 4 0
BBX 4 7 0 0
BITMAP
70
50
E0
E0
40
50
70
ENDCHAR
STARTCHAR uni20AD
ENCODING 8365
SWIDTH 509 0
DWIDTH 4 0
BBX 4 6 0 0
BITMAP
70
60
E0
60
60
70
ENDCHAR
STARTCHAR uni20B1
ENCODING 8369
SWIDTH 509 0
DWIDTH 4 0
BBX 4 6 0 0
BITMAP
60
F0
F0
60
40
40
ENDCHAR
STARTCHAR uni20B2
ENCODING 8370
SWIDTH 508 0
DWIDTH 4 0
BBX 4 7 0 0
BITMAP
60
50
C0
F0
D0
50
70
ENDCHAR
STARTCHAR uni20B5
ENCODING 8373
SWIDTH 481 0
DWIDTH 4 0
BBX 4 7 0 -1
BITMAP
40
E0
F0
C0
F0
F0
60
ENDCHAR
STARTCHAR uni20B9
ENCODING 8377
SWIDTH 509 0
DWIDTH 4 0
BBX 4 6 0 0
BITMAP
F0
F0
E0
40
40
20
ENDCHAR
STARTCHAR uni20BA
ENCODING 8378
SWIDTH 507 0
DWIDTH 4 0
BBX 4 7 0 0
BITMAP
40
40
60
E0
D0
50
60
ENDCHAR
STARTCHAR uni20BC
ENCODING 8380
SWIDTH 509 0
DWIDTH 4 0
BBX 4 6 0 0
BITMAP
20
60
B0
B0
B0
B0
ENDCHAR
STARTCHAR uni20BD
ENCODING 8381
SWIDTH 293 0
DWIDTH 2 0
BBX 4 6 0 0
BITMAP
60
50
50
E0
E0
40
ENDCHAR
STARTCHAR uni2113
ENCODING 8467
SWIDTH 248 0
DWIDTH 2 0
BBX 2 7 0 0
BITMAP
C0
C0
C0
C0
C0
C0
C0
ENDCHAR
STARTCHAR uni2116
ENCODING 8470
SWIDTH 944 0
DWIDTH 8 0
BBX 7 7 0 0
BITMAP
FE
FA
FA
FE
F0
FE
F0
ENDCHAR
STARTCHAR trademark
ENCODING 8482
SWIDTH 925 0
DWIDTH 7 0
BBX 7 5 0 2
BITMAP
DE
5E
5E
5E
5A
ENDCHAR
STARTCHAR uni2126
ENCODING 8486
SWIDTH 484 0
DWIDTH 4 0
BBX 4 6 0 0
BITMAP
E0
F0
F0
F0
E0
F0
ENDCHAR
STARTCHAR estimated
ENCODING 8494
SWIDTH 488 0
DWIDTH 4 0
BBX 4 6 0 0
BITMAP
60
90
F0
80
90
60
ENDCHAR
STARTCHAR partialdiff
ENCODING 8706
SWIDTH 523 0
DWIDTH 4 0
BBX 4 7 0 0
BITMAP
60
70
10
F0
F0
F0
E0
ENDCHAR
STARTCHAR emptyset
ENCODING 8709
SWIDTH 677 0
DWIDTH 5 0
BBX 5 5 0 1
BITMAP
78
98
A8
C8
F0
ENDCHAR
STARTCHAR uni2206
ENCODING 8710
SWIDTH 450 0
DWIDTH 4 0
BBX 3 7 0 0
BITMAP
60
60
60
E0
E0
E0
E0
ENDCHAR
STARTCHAR product
ENCODING 8719
SWIDTH 483 0
DWIDTH 4 0
BBX 4 7 0 0
BITMAP
F0
F0
F0
F0
F0
F0
F0
ENDCHAR
STARTCHAR summation
ENCODING 8721
SWIDTH 415 0
DWIDTH 3 0
BBX 3 7 0 0
BITMAP
E0
C0
40
40
40
C0
E0
ENDCHAR
STARTCHAR minus
ENCODING 8722
SWIDTH 311 0
DWIDTH 2 0
BBX 2 1 0 2
BITMAP
C0
ENDCHAR
STARTCHAR uni2215
ENCODING 8725
SWIDTH 392 0
DWIDTH 3 0
BBX 3 7 0 0
BITMAP
20
60
60
40
40
C0
C0
ENDCHAR
STARTCHAR uni2219
ENCODING 8729
SWIDTH 293 0
DWIDTH 2 0
BBX 1 1 1 3
BITMAP
80
ENDCHAR
STARTCHAR radical
ENCODING 8730
SWIDTH 692 0
DWIDTH 6 0
BBX 5 6 0 0
BITMAP
38
20
20
A0
60
60
ENDCHAR
STARTCHAR infinity
ENCODING 8734
SWIDTH 572 0
DWIDTH 5 0
BBX 4 2 0 2
BITMAP
F0
F0
ENDCHAR
STARTCHAR integral
ENCODING 8747
SWIDTH 296 0
DWIDTH 2 0
BBX 2 6 0 0
BITMAP
40
C0
C0
C0
C0
C0
ENDCHAR
STARTCHAR approxequal
ENCODING 8776
SWIDTH 493 0
DWIDTH 4 0
BBX 4 4 0 1
BITMAP
50
B0
50
A0
ENDCHAR
STARTCHAR notequal
ENCODING 8800
SWIDTH 311 0
DWIDTH 2 0
BBX 2 2 0 2
BITMAP
C0
C0
ENDCHAR
STARTCHAR lessequal
ENCODING 8804
SWIDTH 323 0
DWIDTH 3 0
BBX 2 6 0 0
BITMAP
40
40
80
C0
40
C0
ENDCHAR
STARTCHAR greaterequal
ENCODING 8805
SWIDTH 323 0
DWIDTH 3 0
BBX 2 6 0 0
BITMAP
80
C0
40
C0
80
C0
ENDCHAR
STARTCHAR lozenge
ENCODING 9674
SWIDTH 450 0
DWIDTH 4 0
BBX 3 6 0 0
BITMAP
60
60
A0
A0
E0
60
ENDCHAR
STARTCHAR fi
ENCODING 64257
SWIDTH 523 0
DWIDTH 4 0
BBX 4 7 0 0
BITMAP
F0
F0
F0
F0
F0
F0
F0
ENDCHAR
STARTCHAR fl
ENCODING 64258
SWIDTH 528 0
DWIDTH 4 0
BBX 4 7 0 0
BITMAP
D0
D0
D0
D0
D0
D0
D0
ENDCHAR
STARTCHAR .notdef
ENCODING -1
SWIDTH 263 0
DWIDTH 2 0
BBX 1 1 0 0
BITMAP
00
ENDCHAR
STARTCHAR Iacute_J.loclNLD
ENCODING -1
SWIDTH 693 0
DWIDTH 6 0
BBX 6 9 0 0
BITMAP
44
C8
C8
C8
C8
C8
E8
E8
F8
ENDCHAR
STARTCHAR i.loclTRK
ENCODING -1
SWIDTH 235 0
DWIDTH 2 0
BBX 2 7 0 0
BITMAP
C0
C0
C0
C0
C0
C0
C0
ENDCHAR
STARTCHAR iacute_j.loclNLD
ENCODING -1
SWIDTH 502 0
DWIDTH 4 0
BBX 4 8 0 0
BITMAP
50
F0
F0
F0
F0
F0
F0
F0
ENDCHAR
STARTCHAR f_f
ENCODING -1
SWIDTH 560 0
DWIDTH 4 0
BBX 4 7 0 0
BITMAP
D0
F0
D0
D0
D0
D0
D0
ENDCHAR
STARTCHAR f_f_i
ENCODING -1
SWIDTH 803 0
DWIDTH 6 0
BBX 6 7 0 0
BITMAP
D4
F4
D4
D4
D4
D4
D4
ENDCHAR
STARTCHAR f_f_l
ENCODING -1
SWIDTH 808 0
DWIDTH 6 0
BBX 6 7 0 0
BITMAP
D4
F4
D4
D4
D4
D4
D4
ENDCHAR
STARTCHAR periodcentered.loclCAT.case
ENCODING -1
SWIDTH 0 0
DWIDTH 0 0
BBX 2 1 -1 3
BITMAP
C0
ENDCHAR
STARTCHAR periodcentered.loclCAT
ENCODING -1
SWIDTH 0 0
DWIDTH 0 0
BBX 2 1 -1 3
BITMAP
C0
ENDCHAR
STARTCHAR caroncomb.alt
ENCODING -1
SWIDTH 0 0
DWIDTH 0 0
BBX 1 2 0 5
BITMAP
80
80
ENDCHAR
STARTCHAR uni0326.alt
ENCODING -1
SWIDTH 0 0
DWIDTH 0 0
BBX 2 2 -2 7
BITMAP
80
C0
ENDCHAR
STARTCHAR uni0308.case
ENCODING -1
SWIDTH 0 0
DWIDTH 0 0
BBX 4 1 -2 6
BITMAP
F0
ENDCHAR
STARTCHAR uni0307.case
ENCODING -1
SWIDTH 0 0
DWIDTH 0 0
BBX 2 1 -1 6
BITMAP
C0
ENDCHAR
STARTCHAR gravecomb.case
ENCODING -1
SWIDTH 0 0
DWIDTH 0 0
BBX 2 2 -1 6
BITMAP
80
C0
ENDCHAR
STARTCHAR acutecomb.case
ENCODING -1
SWIDTH 0 0
DWIDTH 0 0
BBX 2 2 -1 6
BITMAP
40
C0
ENDCHAR
STARTCHAR uni030B.case
ENCODING -1
SWIDTH 0 0
DWIDTH 0 0
BBX 2 2 -1 6
BITMAP
C0
80
ENDCHAR
STARTCHAR uni0302.case
ENCODING -1
SWIDTH 0 0
DWIDTH 0 0
BBX 4 1 -2 7
BITMAP
F0
ENDCHAR
STARTCHAR uni030C.case
ENCODING -1
SWIDTH 0 0
DWIDTH 0 0
BBX 4 1 -2 7
BITMAP
F0
ENDCHAR
STARTCHAR uni0306.case
ENCODING -1
SWIDTH 0 0
DWIDTH 0 0
BBX 4 2 -2 6
BITMAP
90
60
ENDCHAR
STARTCHAR uni030A.case
ENCODING -1
SWIDTH 0 0
DWIDTH 0 0
BBX 2 3 -1 6
BITMAP
C0
C0
C0
ENDCHAR
STARTCHAR tildecomb.case
ENCODING -1
SWIDTH 0 0
DWIDTH 0 0
BBX 4 1 -2 6
BITMAP
F0
ENDCHAR
STARTCHAR hookabovecomb.case
ENCODING -1
SWIDTH 0 0
DWIDTH 0 0
BBX 2 3 -1 6
BITMAP
C0
40
80
ENDCHAR
STARTCHAR uni030F.case
ENCODING -1
SWIDTH 0 0
DWIDTH 0 0
BBX 3 2 -2 6
BITMAP
E0
60
ENDCHAR
STARTCHAR uni0311.case
ENCODING -1
SWIDTH 0 0
DWIDTH 0 0
BBX 2 2 -1 6
BITMAP
C0
C0
ENDCHAR
STARTCHAR uni031B.case
ENCODING -1
SWIDTH 0 0
DWIDTH 0 0
BBX 2 2 0 6
BITMAP
40
C0
ENDCHAR
STARTCHAR uni03060301
ENCODING -1
SWIDTH 0 0
DWIDTH 0 0
BBX 4 3 -2 6
BITMAP
60
90
60
ENDCHAR
STARTCHAR uni03060300
ENCODING -1
SWIDTH 0 0
DWIDTH 0 0
BBX 4 3 -2 6
BITMAP
60
90
60
ENDCHAR
STARTCHAR uni03060309
ENCODING -1
SWIDTH 0 0
DWIDTH 0 0
BBX 4 4 -2 6
BITMAP
60
20
D0
60
ENDCHAR
STARTCHAR uni03060303
ENCODING -1
SWIDTH 0 0
DWIDTH 0 0
BBX 4 3 -2 6
BITMAP
50
B0
60
ENDCHAR
STARTCHAR uni03020301
ENCODING -1
SWIDTH 0 0
DWIDTH 0 0
BBX 5 2 -2 6
BITMAP
08
F0
ENDCHAR
STARTCHAR uni03020300
ENCODING -1
SWIDTH 0 0
DWIDTH 0 0
BBX 4 2 -2 6
BITMAP
10
F0
ENDCHAR
STARTCHAR uni03020309
ENCODING -1
SWIDTH 0 0
DWIDTH 0 0
BBX 4 3 -2 7
BITMAP
10
10
F0
ENDCHAR
STARTCHAR uni03020303
ENCODING -1
SWIDTH 0 0
DWIDTH 0 0
BBX 4 3 -2 6
BITMAP
50
A0
F0
ENDCHAR
STARTCHAR uni03060301.case
ENCODING -1
SWIDTH 0 0
DWIDTH 0 0
BBX 2 2 -1 7
BITMAP
C0
C0
ENDCHAR
STARTCHAR uni03060300.case
ENCODING -1
SWIDTH 0 0
DWIDTH 0 0
BBX 2 2 -1 7
BITMAP
C0
C0
ENDCHAR
STARTCHAR uni03060309.case
ENCODING -1
SWIDTH 0 0
DWIDTH 0 0
BBX 2 3 -1 7
BITMAP
40
40
C0
ENDCHAR
STARTCHAR uni03060303.case
ENCODING -1
SWIDTH 0 0
DWIDTH 0 0
BBX 2 2 -1 7
BITMAP
C0
C0
ENDCHAR
STARTCHAR uni03020301.case
ENCODING -1
SWIDTH 0 0
DWIDTH 0 0
BBX 5 2 -2 7
BITMAP
18
F0
ENDCHAR
STARTCHAR uni03020300.case
ENCODING -1
SWIDTH 0 0
DWIDTH 0 0
BBX 4 2 -2 7
BITMAP
70
F0
ENDCHAR
STARTCHAR uni03020309.case
ENCODING -1
SWIDTH 0 0
DWIDTH 0 0
BBX 4 2 -2 7
BITMAP
10
F0
ENDCHAR
STARTCHAR uni03020303.case
ENCODING -1
SWIDTH 0 0
DWIDTH 0 0
BBX 4 2 -2 7
BITMAP
60
F0
ENDCHAR
ENDFONT
